SplineFontDB: 3.0
FontName: Boxy
FullName: Boxy Regular
FamilyName: Boxy
Weight: Book
Copyright: Copyright Chris Burgess 2015
Version: 1.0
ItalicAngle: 0
UnderlinePosition: 8
UnderlineWidth: 0
Ascent: 96
Descent: 32
InvalidEm: 0
sfntRevision: 0x00010000
LayerCount: 2
Layer: 0 1 "Back" 1
Layer: 1 1 "Fore" 0
XUID: [1021 572 990901585 11295349]
FSType: 4
OS2Version: 2
OS2_WeightWidthSlopeOnly: 0
OS2_UseTypoMetrics: 1
CreationTime: 1439576743
ModificationTime: 1541305077
PfmFamily: 81
TTFWeight: 400
TTFWidth: 5
LineGap: 0
VLineGap: 0
Panose: 0 0 4 0 0 0 0 0 0 0
OS2TypoAscent: 80
OS2TypoAOffset: 0
OS2TypoDescent: 0
OS2TypoDOffset: 0
OS2TypoLinegap: 0
OS2WinAscent: 96
OS2WinAOffset: 0
OS2WinDescent: 32
OS2WinDOffset: 0
HheadAscent: 96
HheadAOffset: 0
HheadDescent: -32
HheadDOffset: 0
OS2SubXSize: 64
OS2SubYSize: 64
OS2SubXOff: 0
OS2SubYOff: 0
OS2SupXSize: 64
OS2SupYSize: 64
OS2SupXOff: 0
OS2SupYOff: 64
OS2StrikeYSize: 8
OS2StrikeYPos: 24
OS2Vendor: 'FSTR'
OS2CodePages: 00000001.00000000
OS2UnicodeRanges: 80000001.00000000.00000000.00000000
MarkAttachClasses: 1
DEI: 91125
ShortTable: maxp 16
  1
  0
  73
  36
  9
  0
  0
  2
  0
  0
  0
  0
  0
  0
  0
  0
EndShort
LangName: 1033 "" "" "Regular" "FontStruct Boxy" "" "Version 1.0" "" "FontStruct is a trademark of FSI FontShop International GmbH" "http://fontstruct.com" "Chris Burgess" "+IBoAxAD6-Boxy+IBoAxAD5 was built with FontStruct+AAoA" "http://www.fontshop.com" "http://fontstruct.com/fontstructions/show/1156394" "Creative Commons Attribution Share Alike" "http://creativecommons.org/licenses/by-sa/3.0/" "" "" "" "" "Five big quacking zephyrs jolt my wax bed"
Encoding: UnicodeBmp
UnicodeInterp: none
NameList: Adobe Glyph List
DisplaySize: -24
AntiAlias: 1
FitToEm: 1
WinInfo: 9214 34 17
BeginPrivate: 0
EndPrivate
TeXData: 1 0 0 261120 130560 87040 393216 1048576 87040 783286 444596 497025 792723 393216 433062 380633 303038 157286 324010 404750 52429 2506097 1059062 262144
BeginChars: 65539 158

StartChar: .notdef
Encoding: 65536 -1 0
Width: 8
Flags: W
LayerCount: 2
Fore
SplineSet
40 11 m 1,0,-1
 40 24 l 1,1,-1
 27 24 l 1,2,-1
 27 11 l 1,3,-1
 40 11 l 1,0,-1
53 26 m 1,4,-1
 53 39 l 1,5,-1
 27 39 l 1,6,-1
 27 26 l 1,7,-1
 53 26 l 1,4,-1
40 41 m 1,8,-1
 40 54 l 1,9,-1
 27 54 l 1,10,-1
 27 41 l 1,11,-1
 40 41 l 1,8,-1
53 56 m 1,12,-1
 53 68 l 1,13,-1
 40 68 l 2,14,15
 35 68 35 68 31 65 c 0,16,17
 27 61 27 61 27 56 c 1,18,-1
 53 56 l 1,12,-1
0 0 m 1,19,-1
 0 80 l 1,20,-1
 80 80 l 1,21,-1
 80 0 l 1,22,-1
 0 0 l 1,19,-1
EndSplineSet
Validated: 1
EndChar

StartChar: exclam
Encoding: 33 33 4
Width: 24
Flags: W
LayerCount: 2
Fore
SplineSet
0 0 m 1,0,-1
 0 16 l 1,1,-1
 16 16 l 1,2,-1
 16 0 l 1,3,-1
 0 0 l 1,0,-1
0 32 m 1,4,-1
 0 80 l 1,5,-1
 16 80 l 1,6,-1
 16 32 l 1,7,-1
 0 32 l 1,4,-1
EndSplineSet
Validated: 1
EndChar

StartChar: quotesingle
Encoding: 39 39 5
Width: 24
Flags: W
LayerCount: 2
Fore
SplineSet
0 64 m 1,0,-1
 0 96 l 1,1,-1
 16 96 l 1,2,-1
 16 64 l 1,3,-1
 0 64 l 1,0,-1
EndSplineSet
Validated: 1
EndChar

StartChar: comma
Encoding: 44 44 6
Width: 24
Flags: W
LayerCount: 2
Fore
SplineSet
0 -16 m 1,0,-1
 0 16 l 1,1,-1
 16 16 l 1,2,-1
 16 -16 l 1,3,-1
 0 -16 l 1,0,-1
EndSplineSet
Validated: 1
EndChar

StartChar: period
Encoding: 46 46 7
Width: 24
Flags: W
LayerCount: 2
Fore
SplineSet
0 0 m 5,0,-1
 0 16 l 5,1,-1
 16 16 l 5,2,-1
 16 0 l 5,3,-1
 0 0 l 5,0,-1
EndSplineSet
Validated: 1
EndChar

StartChar: zero
Encoding: 48 48 8
Width: 56
Flags: W
LayerCount: 2
Fore
SplineSet
32 16 m 5,0,-1
 32 64 l 5,1,-1
 16 64 l 5,2,-1
 16 16 l 5,3,-1
 32 16 l 5,0,-1
0 0 m 5,4,-1
 0 80 l 5,5,-1
 48 80 l 5,6,-1
 48 0 l 5,7,-1
 0 0 l 5,4,-1
EndSplineSet
Validated: 1
EndChar

StartChar: one
Encoding: 49 49 9
Width: 56
Flags: W
LayerCount: 2
Fore
SplineSet
0 0 m 1,0,-1
 0 16 l 1,1,-1
 16 16 l 1,2,-1
 16 64 l 1,3,-1
 0 64 l 1,4,-1
 0 80 l 1,5,-1
 32 80 l 1,6,-1
 32 16 l 1,7,-1
 48 16 l 1,8,-1
 48 0 l 1,9,-1
 0 0 l 1,0,-1
EndSplineSet
Validated: 1
EndChar

StartChar: two
Encoding: 50 50 10
Width: 72
Flags: W
LayerCount: 2
Fore
SplineSet
0 0 m 1,0,-1
 0 48 l 1,1,-1
 48 48 l 1,2,-1
 48 64 l 1,3,-1
 0 64 l 1,4,-1
 0 80 l 1,5,-1
 64 80 l 1,6,-1
 64 32 l 1,7,-1
 16 32 l 1,8,-1
 16 16 l 1,9,-1
 64 16 l 1,10,-1
 64 0 l 1,11,-1
 0 0 l 1,0,-1
EndSplineSet
Validated: 1
EndChar

StartChar: three
Encoding: 51 51 11
Width: 72
Flags: W
LayerCount: 2
Fore
SplineSet
0 0 m 1,0,-1
 0 16 l 1,1,-1
 48 16 l 1,2,-1
 48 32 l 1,3,-1
 16 32 l 1,4,-1
 16 48 l 1,5,-1
 48 48 l 1,6,-1
 48 64 l 1,7,-1
 0 64 l 1,8,-1
 0 80 l 1,9,-1
 64 80 l 1,10,-1
 64 0 l 1,11,-1
 0 0 l 1,0,-1
EndSplineSet
Validated: 1
EndChar

StartChar: four
Encoding: 52 52 12
Width: 72
Flags: W
LayerCount: 2
Fore
SplineSet
32 0 m 1,0,-1
 32 32 l 1,1,-1
 0 32 l 1,2,-1
 0 80 l 1,3,-1
 16 80 l 1,4,-1
 16 48 l 1,5,-1
 32 48 l 1,6,-1
 32 80 l 1,7,-1
 48 80 l 1,8,-1
 48 48 l 1,9,-1
 64 48 l 1,10,-1
 64 32 l 1,11,-1
 48 32 l 1,12,-1
 48 0 l 1,13,-1
 32 0 l 1,0,-1
EndSplineSet
Validated: 1
EndChar

StartChar: five
Encoding: 53 53 13
Width: 72
Flags: W
LayerCount: 2
Fore
SplineSet
0 0 m 1,0,-1
 0 16 l 1,1,-1
 48 16 l 1,2,-1
 48 0 l 1,3,-1
 0 0 l 1,0,-1
48 16 m 1,4,-1
 48 32 l 1,5,-1
 0 32 l 1,6,-1
 0 80 l 1,7,-1
 64 80 l 1,8,-1
 64 64 l 1,9,-1
 16 64 l 1,10,-1
 16 48 l 1,11,-1
 64 48 l 1,12,-1
 64 16 l 1,13,-1
 48 16 l 1,4,-1
EndSplineSet
Validated: 5
EndChar

StartChar: six
Encoding: 54 54 14
Width: 72
Flags: W
LayerCount: 2
Fore
SplineSet
48 16 m 1,0,-1
 48 32 l 1,1,-1
 16 32 l 1,2,-1
 16 16 l 1,3,-1
 48 16 l 1,0,-1
0 0 m 1,4,-1
 0 80 l 1,5,-1
 64 80 l 5,6,-1
 64 64 l 5,7,-1
 16 64 l 1,8,-1
 16 48 l 1,9,-1
 64 48 l 1,10,-1
 64 0 l 1,11,-1
 0 0 l 1,4,-1
EndSplineSet
Validated: 1
EndChar

StartChar: seven
Encoding: 55 55 15
Width: 72
Flags: W
LayerCount: 2
Fore
SplineSet
48 0 m 5,0,-1
 48 64 l 5,1,-1
 0 64 l 5,2,-1
 0 80 l 5,3,-1
 64 80 l 5,4,-1
 64 0 l 5,5,-1
 48 0 l 5,0,-1
EndSplineSet
Validated: 1
EndChar

StartChar: eight
Encoding: 56 56 16
Width: 72
Flags: W
LayerCount: 2
Fore
SplineSet
48 16 m 1,0,-1
 48 32 l 1,1,-1
 16 32 l 1,2,-1
 16 16 l 1,3,-1
 48 16 l 1,0,-1
48 48 m 1,4,-1
 48 64 l 1,5,-1
 16 64 l 1,6,-1
 16 48 l 1,7,-1
 48 48 l 1,4,-1
0 0 m 1,8,-1
 0 80 l 1,9,-1
 64 80 l 1,10,-1
 64 0 l 1,11,-1
 0 0 l 1,8,-1
EndSplineSet
Validated: 1
EndChar

StartChar: nine
Encoding: 57 57 17
Width: 72
Flags: W
LayerCount: 2
Fore
SplineSet
48 48 m 1,0,-1
 48 64 l 1,1,-1
 16 64 l 1,2,-1
 16 48 l 1,3,-1
 48 48 l 1,0,-1
48 0 m 1,4,-1
 48 32 l 1,5,-1
 0 32 l 1,6,-1
 0 80 l 1,7,-1
 64 80 l 1,8,-1
 64 0 l 1,9,-1
 48 0 l 1,4,-1
EndSplineSet
Validated: 1
EndChar

StartChar: question
Encoding: 63 63 18
Width: 88
Flags: W
LayerCount: 2
Fore
SplineSet
16 0 m 1,0,-1
 16 16 l 1,1,-1
 32 16 l 5,2,-1
 32 0 l 1,3,-1
 16 0 l 1,0,-1
16 32 m 1,4,-1
 16 48 l 1,5,-1
 48 48 l 1,6,-1
 48 64 l 1,7,-1
 0 64 l 1,8,-1
 0 80 l 1,9,-1
 64 80 l 1,10,-1
 64 32 l 1,11,-1
 16 32 l 1,4,-1
EndSplineSet
Validated: 1
EndChar

StartChar: A
Encoding: 65 65 19
Width: 72
Flags: W
LayerCount: 2
Fore
SplineSet
48 48 m 1,0,-1
 48 64 l 1,1,-1
 16 64 l 1,2,-1
 16 48 l 1,3,-1
 48 48 l 1,0,-1
0 0 m 1,4,-1
 0 80 l 1,5,-1
 64 80 l 1,6,-1
 64 0 l 1,7,-1
 48 0 l 1,8,-1
 48 32 l 1,9,-1
 16 32 l 1,10,-1
 16 0 l 1,11,-1
 0 0 l 1,4,-1
EndSplineSet
Validated: 1
EndChar

StartChar: B
Encoding: 66 66 20
Width: 72
Flags: W
LayerCount: 2
Fore
SplineSet
48 16 m 1,0,-1
 48 32 l 1,1,-1
 16 32 l 1,2,-1
 16 16 l 1,3,-1
 48 16 l 1,0,-1
32 48 m 1,4,-1
 32 64 l 1,5,-1
 16 64 l 1,6,-1
 16 48 l 1,7,-1
 32 48 l 1,4,-1
0 0 m 1,8,-1
 0 80 l 1,9,-1
 48 80 l 1,10,-1
 48 48 l 1,11,-1
 64 48 l 1,12,-1
 64 0 l 1,13,-1
 0 0 l 1,8,-1
EndSplineSet
Validated: 1
EndChar

StartChar: C
Encoding: 67 67 21
Width: 72
Flags: W
LayerCount: 2
Fore
SplineSet
0 0 m 1,0,-1
 0 80 l 1,1,-1
 64 80 l 1,2,-1
 64 64 l 1,3,-1
 16 64 l 1,4,-1
 16 16 l 1,5,-1
 64 16 l 1,6,-1
 64 0 l 1,7,-1
 0 0 l 1,0,-1
EndSplineSet
Validated: 1
EndChar

StartChar: D
Encoding: 68 68 22
Width: 72
Flags: W
LayerCount: 2
Fore
SplineSet
0 0 m 1,0,-1
 0 80 l 1,1,-1
 48 80 l 1,2,-1
 48 64 l 1,3,-1
 16 64 l 1,4,-1
 16 16 l 1,5,-1
 48 16 l 1,6,-1
 48 64 l 1,7,-1
 64 64 l 1,8,-1
 64 0 l 1,9,-1
 0 0 l 1,0,-1
EndSplineSet
Validated: 5
EndChar

StartChar: E
Encoding: 69 69 23
Width: 72
Flags: W
LayerCount: 2
Fore
SplineSet
0 0 m 1,0,-1
 0 80 l 1,1,-1
 64 80 l 1,2,-1
 64 64 l 1,3,-1
 16 64 l 1,4,-1
 16 48 l 1,5,-1
 48 48 l 1,6,-1
 48 32 l 1,7,-1
 16 32 l 1,8,-1
 16 16 l 1,9,-1
 64 16 l 1,10,-1
 64 0 l 1,11,-1
 0 0 l 1,0,-1
EndSplineSet
Validated: 1
EndChar

StartChar: F
Encoding: 70 70 24
Width: 72
Flags: W
LayerCount: 2
Fore
SplineSet
0 0 m 1,0,-1
 0 80 l 1,1,-1
 64 80 l 1,2,-1
 64 64 l 1,3,-1
 16 64 l 1,4,-1
 16 48 l 1,5,-1
 48 48 l 1,6,-1
 48 32 l 1,7,-1
 16 32 l 1,8,-1
 16 0 l 1,9,-1
 0 0 l 1,0,-1
EndSplineSet
Validated: 1
EndChar

StartChar: G
Encoding: 71 71 25
Width: 72
Flags: W
LayerCount: 2
Fore
SplineSet
0 0 m 1,0,-1
 0 80 l 1,1,-1
 64 80 l 1,2,-1
 64 64 l 1,3,-1
 16 64 l 1,4,-1
 16 16 l 1,5,-1
 48 16 l 1,6,-1
 48 32 l 1,7,-1
 32 32 l 1,8,-1
 32 48 l 1,9,-1
 64 48 l 1,10,-1
 64 0 l 1,11,-1
 0 0 l 1,0,-1
EndSplineSet
Validated: 1
EndChar

StartChar: H
Encoding: 72 72 26
Width: 72
Flags: W
LayerCount: 2
Fore
SplineSet
0 0 m 1,0,-1
 0 80 l 1,1,-1
 16 80 l 1,2,-1
 16 48 l 1,3,-1
 48 48 l 1,4,-1
 48 80 l 1,5,-1
 64 80 l 1,6,-1
 64 0 l 1,7,-1
 48 0 l 1,8,-1
 48 32 l 1,9,-1
 16 32 l 1,10,-1
 16 0 l 1,11,-1
 0 0 l 1,0,-1
EndSplineSet
Validated: 1
EndChar

StartChar: I
Encoding: 73 73 27
Width: 56
Flags: W
LayerCount: 2
Fore
SplineSet
16 0 m 5,0,-1
 16 80 l 5,1,-1
 32 80 l 5,2,-1
 32 0 l 5,3,-1
 16 0 l 5,0,-1
EndSplineSet
Validated: 1
EndChar

StartChar: J
Encoding: 74 74 28
Width: 72
Flags: W
LayerCount: 2
Fore
SplineSet
0 0 m 1,0,-1
 0 32 l 1,1,-1
 16 32 l 1,2,-1
 16 16 l 1,3,-1
 48 16 l 1,4,-1
 48 80 l 1,5,-1
 64 80 l 1,6,-1
 64 0 l 1,7,-1
 0 0 l 1,0,-1
EndSplineSet
Validated: 1
EndChar

StartChar: K
Encoding: 75 75 29
Width: 72
Flags: W
LayerCount: 2
Fore
SplineSet
48 0 m 1,0,-1
 48 16 l 1,1,-1
 64 16 l 1,2,-1
 64 0 l 1,3,-1
 48 0 l 1,0,-1
32 16 m 1,4,-1
 32 32 l 1,5,-1
 48 32 l 1,6,-1
 48 16 l 1,7,-1
 32 16 l 1,4,-1
32 48 m 1,8,-1
 32 64 l 1,9,-1
 48 64 l 1,10,-1
 48 48 l 1,11,-1
 32 48 l 1,8,-1
0 0 m 1,12,-1
 0 80 l 1,13,-1
 16 80 l 1,14,-1
 16 48 l 1,15,-1
 32 48 l 1,16,-1
 32 32 l 1,17,-1
 16 32 l 1,18,-1
 16 0 l 1,19,-1
 0 0 l 1,12,-1
48 64 m 1,20,-1
 48 80 l 1,21,-1
 64 80 l 1,22,-1
 64 64 l 1,23,-1
 48 64 l 1,20,-1
EndSplineSet
Validated: 5
EndChar

StartChar: L
Encoding: 76 76 30
Width: 72
Flags: W
LayerCount: 2
Fore
SplineSet
0 0 m 1,0,-1
 0 80 l 1,1,-1
 16 80 l 1,2,-1
 16 16 l 1,3,-1
 64 16 l 1,4,-1
 64 0 l 1,5,-1
 0 0 l 1,0,-1
EndSplineSet
Validated: 1
EndChar

StartChar: M
Encoding: 77 77 31
Width: 88
Flags: W
LayerCount: 2
Fore
SplineSet
32 32 m 1,0,-1
 32 48 l 1,1,-1
 48 48 l 1,2,-1
 48 32 l 1,3,-1
 32 32 l 1,0,-1
0 0 m 1,4,-1
 0 80 l 1,5,-1
 16 80 l 1,6,-1
 16 64 l 1,7,-1
 32 64 l 1,8,-1
 32 48 l 1,9,-1
 16 48 l 1,10,-1
 16 0 l 1,11,-1
 0 0 l 1,4,-1
64 0 m 1,12,-1
 64 48 l 1,13,-1
 48 48 l 1,14,-1
 48 64 l 1,15,-1
 64 64 l 1,16,-1
 64 80 l 1,17,-1
 80 80 l 1,18,-1
 80 0 l 1,19,-1
 64 0 l 1,12,-1
EndSplineSet
Validated: 5
EndChar

StartChar: N
Encoding: 78 78 32
Width: 88
Flags: W
LayerCount: 2
Fore
SplineSet
32 32 m 1,0,-1
 32 48 l 1,1,-1
 48 48 l 1,2,-1
 48 32 l 1,3,-1
 32 32 l 1,0,-1
0 0 m 1,4,-1
 0 80 l 1,5,-1
 16 80 l 1,6,-1
 16 64 l 1,7,-1
 32 64 l 1,8,-1
 32 48 l 1,9,-1
 16 48 l 1,10,-1
 16 0 l 1,11,-1
 0 0 l 1,4,-1
64 0 m 1,12,-1
 64 16 l 1,13,-1
 48 16 l 1,14,-1
 48 32 l 1,15,-1
 64 32 l 1,16,-1
 64 80 l 1,17,-1
 80 80 l 1,18,-1
 80 0 l 1,19,-1
 64 0 l 1,12,-1
EndSplineSet
Validated: 5
EndChar

StartChar: O
Encoding: 79 79 33
Width: 72
Flags: W
LayerCount: 2
Fore
SplineSet
48 16 m 5,0,-1
 48 64 l 5,1,-1
 16 64 l 5,2,-1
 16 16 l 5,3,-1
 48 16 l 5,0,-1
0 0 m 5,4,-1
 0 80 l 5,5,-1
 64 80 l 5,6,-1
 64 0 l 5,7,-1
 0 0 l 5,4,-1
EndSplineSet
Validated: 1
EndChar

StartChar: P
Encoding: 80 80 34
Width: 72
Flags: W
LayerCount: 2
Fore
SplineSet
48 48 m 1,0,-1
 48 64 l 1,1,-1
 16 64 l 1,2,-1
 16 48 l 1,3,-1
 48 48 l 1,0,-1
0 0 m 1,4,-1
 0 80 l 1,5,-1
 64 80 l 1,6,-1
 64 32 l 1,7,-1
 16 32 l 1,8,-1
 16 0 l 1,9,-1
 0 0 l 1,4,-1
EndSplineSet
Validated: 1
EndChar

StartChar: Q
Encoding: 81 81 35
Width: 88
Flags: W
LayerCount: 2
Fore
SplineSet
64 -16 m 1,0,-1
 64 0 l 1,1,-1
 80 0 l 1,2,-1
 80 -16 l 1,3,-1
 64 -16 l 1,0,-1
32 16 m 1,4,-1
 32 32 l 1,5,-1
 48 32 l 1,6,-1
 48 64 l 1,7,-1
 16 64 l 1,8,-1
 16 16 l 1,9,-1
 32 16 l 1,4,-1
0 0 m 1,10,-1
 0 80 l 1,11,-1
 64 80 l 1,12,-1
 64 0 l 1,13,-1
 0 0 l 1,10,-1
EndSplineSet
Validated: 5
EndChar

StartChar: R
Encoding: 82 82 36
Width: 72
Flags: W
LayerCount: 2
Fore
SplineSet
48 0 m 1,0,-1
 48 16 l 1,1,-1
 64 16 l 1,2,-1
 64 0 l 1,3,-1
 48 0 l 1,0,-1
48 48 m 1,4,-1
 48 64 l 1,5,-1
 16 64 l 1,6,-1
 16 48 l 1,7,-1
 48 48 l 1,4,-1
0 0 m 1,8,-1
 0 80 l 1,9,-1
 64 80 l 1,10,-1
 64 32 l 1,11,-1
 48 32 l 1,12,-1
 48 16 l 1,13,-1
 32 16 l 1,14,-1
 32 32 l 1,15,-1
 16 32 l 1,16,-1
 16 0 l 1,17,-1
 0 0 l 1,8,-1
EndSplineSet
Validated: 5
EndChar

StartChar: S
Encoding: 83 83 37
Width: 72
Flags: W
LayerCount: 2
Fore
SplineSet
0 0 m 1,0,-1
 0 16 l 1,1,-1
 48 16 l 1,2,-1
 48 32 l 1,3,-1
 0 32 l 1,4,-1
 0 80 l 1,5,-1
 64 80 l 1,6,-1
 64 64 l 1,7,-1
 16 64 l 1,8,-1
 16 48 l 1,9,-1
 64 48 l 1,10,-1
 64 0 l 1,11,-1
 0 0 l 1,0,-1
EndSplineSet
Validated: 1
EndChar

StartChar: T
Encoding: 84 84 38
Width: 88
Flags: W
LayerCount: 2
Fore
SplineSet
32 0 m 1,0,-1
 32 64 l 1,1,-1
 0 64 l 1,2,-1
 0 80 l 1,3,-1
 80 80 l 1,4,-1
 80 64 l 1,5,-1
 48 64 l 1,6,-1
 48 0 l 1,7,-1
 32 0 l 1,0,-1
EndSplineSet
Validated: 1
EndChar

StartChar: U
Encoding: 85 85 39
Width: 72
Flags: W
LayerCount: 2
Fore
SplineSet
0 0 m 1,0,-1
 0 80 l 1,1,-1
 16 80 l 1,2,-1
 16 16 l 1,3,-1
 48 16 l 1,4,-1
 48 80 l 1,5,-1
 64 80 l 1,6,-1
 64 0 l 1,7,-1
 0 0 l 1,0,-1
EndSplineSet
Validated: 1
EndChar

StartChar: V
Encoding: 86 86 40
Width: 72
Flags: W
LayerCount: 2
Fore
SplineSet
16 0 m 1,0,-1
 16 16 l 1,1,-1
 32 16 l 1,2,-1
 32 0 l 1,3,-1
 16 0 l 1,0,-1
32 16 m 1,4,-1
 32 32 l 1,5,-1
 48 32 l 1,6,-1
 48 16 l 1,7,-1
 32 16 l 1,4,-1
0 16 m 1,8,-1
 0 80 l 1,9,-1
 16 80 l 1,10,-1
 16 16 l 1,11,-1
 0 16 l 1,8,-1
48 32 m 1,12,-1
 48 80 l 1,13,-1
 64 80 l 1,14,-1
 64 32 l 1,15,-1
 48 32 l 1,12,-1
EndSplineSet
Validated: 5
EndChar

StartChar: W
Encoding: 87 87 41
Width: 88
Flags: W
LayerCount: 2
Fore
SplineSet
0 0 m 1,0,-1
 0 80 l 1,1,-1
 16 80 l 1,2,-1
 16 16 l 1,3,-1
 32 16 l 1,4,-1
 32 80 l 1,5,-1
 48 80 l 1,6,-1
 48 16 l 1,7,-1
 64 16 l 1,8,-1
 64 80 l 1,9,-1
 80 80 l 1,10,-1
 80 0 l 1,11,-1
 0 0 l 1,0,-1
EndSplineSet
Validated: 1
EndChar

StartChar: X
Encoding: 88 88 42
Width: 88
Flags: W
LayerCount: 2
Fore
SplineSet
0 0 m 1,0,-1
 0 16 l 1,1,-1
 16 16 l 1,2,-1
 16 0 l 1,3,-1
 0 0 l 1,0,-1
64 0 m 1,4,-1
 64 16 l 1,5,-1
 80 16 l 1,6,-1
 80 0 l 1,7,-1
 64 0 l 1,4,-1
16 16 m 1,8,-1
 16 32 l 1,9,-1
 32 32 l 1,10,-1
 32 16 l 1,11,-1
 16 16 l 1,8,-1
48 16 m 1,12,-1
 48 32 l 1,13,-1
 64 32 l 1,14,-1
 64 16 l 1,15,-1
 48 16 l 1,12,-1
32 32 m 1,16,-1
 32 48 l 1,17,-1
 48 48 l 1,18,-1
 48 32 l 1,19,-1
 32 32 l 1,16,-1
16 48 m 1,20,-1
 16 64 l 1,21,-1
 32 64 l 1,22,-1
 32 48 l 1,23,-1
 16 48 l 1,20,-1
48 48 m 1,24,-1
 48 64 l 1,25,-1
 64 64 l 1,26,-1
 64 48 l 1,27,-1
 48 48 l 1,24,-1
0 64 m 1,28,-1
 0 80 l 1,29,-1
 16 80 l 1,30,-1
 16 64 l 1,31,-1
 0 64 l 1,28,-1
64 64 m 1,32,-1
 64 80 l 1,33,-1
 80 80 l 1,34,-1
 80 64 l 1,35,-1
 64 64 l 1,32,-1
EndSplineSet
Validated: 5
EndChar

StartChar: Y
Encoding: 89 89 43
Width: 88
Flags: W
LayerCount: 2
Fore
SplineSet
0 0 m 1,0,-1
 0 16 l 1,1,-1
 16 16 l 1,2,-1
 16 0 l 1,3,-1
 0 0 l 1,0,-1
16 16 m 1,4,-1
 16 32 l 1,5,-1
 32 32 l 1,6,-1
 32 16 l 1,7,-1
 16 16 l 1,4,-1
32 32 m 1,8,-1
 32 48 l 1,9,-1
 48 48 l 1,10,-1
 48 32 l 1,11,-1
 32 32 l 1,8,-1
16 48 m 1,12,-1
 16 64 l 1,13,-1
 32 64 l 1,14,-1
 32 48 l 1,15,-1
 16 48 l 1,12,-1
48 48 m 1,16,-1
 48 64 l 1,17,-1
 64 64 l 1,18,-1
 64 48 l 1,19,-1
 48 48 l 1,16,-1
0 64 m 1,20,-1
 0 80 l 1,21,-1
 16 80 l 1,22,-1
 16 64 l 1,23,-1
 0 64 l 1,20,-1
64 64 m 1,24,-1
 64 80 l 1,25,-1
 80 80 l 1,26,-1
 80 64 l 1,27,-1
 64 64 l 1,24,-1
EndSplineSet
Validated: 5
EndChar

StartChar: Z
Encoding: 90 90 44
Width: 88
Flags: W
LayerCount: 2
Fore
SplineSet
0 0 m 1,0,-1
 0 16 l 1,1,-1
 16 16 l 1,2,-1
 16 32 l 1,3,-1
 32 32 l 1,4,-1
 32 16 l 1,5,-1
 80 16 l 1,6,-1
 80 0 l 1,7,-1
 0 0 l 1,0,-1
32 32 m 1,8,-1
 32 48 l 1,9,-1
 48 48 l 1,10,-1
 48 32 l 1,11,-1
 32 32 l 1,8,-1
48 48 m 1,12,-1
 48 64 l 1,13,-1
 0 64 l 1,14,-1
 0 80 l 1,15,-1
 80 80 l 1,16,-1
 80 64 l 1,17,-1
 64 64 l 1,18,-1
 64 48 l 1,19,-1
 48 48 l 1,12,-1
EndSplineSet
Validated: 5
EndChar

StartChar: a
Encoding: 97 97 45
Width: 88
Flags: W
LayerCount: 2
Fore
SplineSet
48 16 m 5,0,-1
 48 48 l 5,1,-1
 16 48 l 5,2,-1
 16 16 l 5,3,-1
 48 16 l 5,0,-1
64 0 m 5,4,-1
 16 0 l 5,5,-1
 16 16 l 5,6,-1
 0 16 l 5,7,-1
 0 48 l 5,8,-1
 16 48 l 5,9,-1
 16 64 l 5,10,-1
 48 64 l 5,11,-1
 48 48 l 5,12,-1
 64 48 l 5,13,-1
 64 0 l 5,4,-1
EndSplineSet
Validated: 5
EndChar

StartChar: b
Encoding: 98 98 46
Width: 72
Flags: W
LayerCount: 2
Fore
SplineSet
48 16 m 1,0,-1
 48 48 l 5,1,-1
 16 48 l 5,2,-1
 16 16 l 1,3,-1
 48 16 l 1,0,-1
0 0 m 1,4,-1
 0 80 l 1,5,-1
 16 80 l 1,6,-1
 16 64 l 5,7,-1
 48 64 l 5,8,-1
 48 48 l 5,9,-1
 64 48 l 5,10,-1
 64 16 l 1,11,-1
 48 16 l 1,12,-1
 48 0 l 1,13,-1
 0 0 l 1,4,-1
EndSplineSet
Validated: 5
EndChar

StartChar: c
Encoding: 99 99 47
Width: 72
Flags: W
LayerCount: 2
Fore
SplineSet
16 16 m 5,0,-1
 0 16 l 5,1,-1
 0 48 l 5,2,-1
 16 48 l 5,3,-1
 16 64 l 5,4,-1
 48 64 l 5,5,-1
 48 48 l 5,6,-1
 16 48 l 5,7,-1
 16 16 l 5,8,-1
 48 16 l 5,9,-1
 48 0 l 5,10,-1
 16 0 l 5,11,-1
 16 16 l 5,0,-1
EndSplineSet
Validated: 5
EndChar

StartChar: d
Encoding: 100 100 48
Width: 72
Flags: W
LayerCount: 2
Fore
SplineSet
16 16 m 1,0,-1
 16 48 l 5,1,-1
 48 48 l 5,2,-1
 48 16 l 1,3,-1
 16 16 l 1,0,-1
64 0 m 1,4,-1
 64 80 l 1,5,-1
 48 80 l 1,6,-1
 48 64 l 5,7,-1
 16 64 l 5,8,-1
 16 48 l 5,9,-1
 0 48 l 5,10,-1
 0 16 l 1,11,-1
 16 16 l 1,12,-1
 16 0 l 1,13,-1
 64 0 l 1,4,-1
EndSplineSet
Validated: 5
EndChar

StartChar: e
Encoding: 101 101 49
Width: 72
Flags: W
LayerCount: 2
Fore
SplineSet
48 32 m 1,0,-1
 48 16 l 1,1,-1
 64 16 l 1,2,-1
 64 0 l 1,3,-1
 16 0 l 1,4,-1
 16 16 l 1,5,-1
 0 16 l 1,6,-1
 0 48 l 1,7,-1
 16 48 l 1,8,-1
 16 64 l 1,9,-1
 48 64 l 1,10,-1
 48 48 l 1,11,-1
 64 48 l 1,12,-1
 64 32 l 1,13,-1
 48 32 l 1,14,-1
 48 40 l 1,15,-1
 48 48 l 1,16,-1
 16 48 l 1,17,-1
 16 16 l 1,18,-1
 32 16 l 1,19,-1
 32 32 l 1,20,-1
 48 32 l 1,0,-1
EndSplineSet
Validated: 5
EndChar

StartChar: f
Encoding: 102 102 50
Width: 88
Flags: W
LayerCount: 2
Fore
SplineSet
16 0 m 5,0,-1
 16 32 l 5,1,-1
 0 32 l 5,2,-1
 0 48 l 5,3,-1
 16 48 l 5,4,-1
 16 64 l 5,5,-1
 32 64 l 5,6,-1
 32 80 l 5,7,-1
 64 80 l 5,8,-1
 64 64 l 5,9,-1
 32 64 l 5,10,-1
 32 48 l 5,11,-1
 48 48 l 5,12,-1
 48 32 l 5,13,-1
 32 32 l 5,14,-1
 32 0 l 5,15,-1
 16 0 l 5,0,-1
EndSplineSet
Validated: 5
EndChar

StartChar: g
Encoding: 103 103 51
Width: 72
Flags: W
LayerCount: 2
Fore
SplineSet
48 32 m 5,0,-1
 48 48 l 5,1,-1
 16 48 l 5,2,-1
 16 32 l 5,3,-1
 48 32 l 5,0,-1
16 32 m 5,4,-1
 0 32 l 5,5,-1
 0 48 l 5,6,-1
 16 48 l 5,7,-1
 16 64 l 5,8,-1
 64 64 l 5,9,-1
 64 -16 l 5,10,-1
 16 -16 l 5,11,-1
 16 0 l 5,12,-1
 48 0 l 5,13,-1
 48 16 l 5,14,-1
 16 16 l 5,15,-1
 16 32 l 5,4,-1
EndSplineSet
Validated: 5
EndChar

StartChar: h
Encoding: 104 104 52
Width: 72
Flags: W
LayerCount: 2
Fore
SplineSet
0 0 m 1,0,-1
 0 80 l 1,1,-1
 16 80 l 1,2,-1
 16 64 l 5,3,-1
 48 64 l 5,4,-1
 48 48 l 5,5,-1
 64 48 l 5,6,-1
 64 0 l 1,7,-1
 48 0 l 1,8,-1
 48 48 l 5,9,-1
 16 48 l 5,10,-1
 16 0 l 1,11,-1
 0 0 l 1,0,-1
EndSplineSet
Validated: 5
EndChar

StartChar: i
Encoding: 105 105 53
Width: 56
Flags: W
LayerCount: 2
Fore
SplineSet
16 0 m 1,0,-1
 16 48 l 1,1,-1
 32 48 l 1,2,-1
 32 0 l 1,3,-1
 16 0 l 1,0,-1
16 64 m 1,4,-1
 16 80 l 1,5,-1
 32 80 l 1,6,-1
 32 64 l 1,7,-1
 16 64 l 1,4,-1
EndSplineSet
Validated: 1
EndChar

StartChar: j
Encoding: 106 106 54
Width: 72
Flags: W
LayerCount: 2
Fore
SplineSet
0 0 m 1,0,-1
 0 32 l 1,1,-1
 16 32 l 1,2,-1
 16 16 l 1,3,-1
 48 16 l 1,4,-1
 48 48 l 1,5,-1
 64 48 l 1,6,-1
 64 0 l 1,7,-1
 0 0 l 1,0,-1
48 64 m 1,8,-1
 48 80 l 1,9,-1
 64 80 l 1,10,-1
 64 64 l 1,11,-1
 48 64 l 1,8,-1
EndSplineSet
Validated: 1
EndChar

StartChar: k
Encoding: 107 107 55
Width: 72
Flags: W
LayerCount: 2
Fore
SplineSet
32 0 m 1,0,-1
 32 32 l 5,1,-1
 48 32 l 5,2,-1
 48 0 l 1,3,-1
 32 0 l 1,0,-1
32 48 m 5,4,-1
 32 64 l 5,5,-1
 48 64 l 5,6,-1
 48 48 l 5,7,-1
 32 48 l 5,4,-1
0 0 m 1,8,-1
 0 80 l 1,9,-1
 16 80 l 1,10,-1
 16 48 l 5,11,-1
 32 48 l 5,12,-1
 32 32 l 5,13,-1
 16 32 l 5,14,-1
 16 0 l 1,15,-1
 0 0 l 1,8,-1
EndSplineSet
Validated: 5
EndChar

StartChar: l
Encoding: 108 108 56
Width: 72
Flags: W
LayerCount: 2
Fore
SplineSet
16 0 m 5,0,-1
 16 80 l 5,1,-1
 32 80 l 5,2,-1
 32 16 l 5,3,-1
 48 16 l 5,4,-1
 48 0 l 5,5,-1
 16 0 l 5,0,-1
EndSplineSet
Validated: 1
EndChar

StartChar: m
Encoding: 109 109 57
Width: 88
Flags: W
LayerCount: 2
Fore
SplineSet
0 0 m 1,0,-1
 0 64 l 1,1,-1
 64 64 l 1,2,-1
 64 48 l 1,3,-1
 80 48 l 1,4,-1
 80 0 l 1,5,-1
 64 0 l 1,6,-1
 64 48 l 1,7,-1
 48 48 l 1,8,-1
 48 0 l 1,9,-1
 32 0 l 1,10,-1
 32 48 l 1,11,-1
 16 48 l 1,12,-1
 16 0 l 1,13,-1
 0 0 l 1,0,-1
EndSplineSet
Validated: 5
EndChar

StartChar: n
Encoding: 110 110 58
Width: 72
Flags: W
LayerCount: 2
Fore
SplineSet
0 0 m 1,0,-1
 0 64 l 1,1,-1
 48 64 l 5,2,-1
 48 48 l 5,3,-1
 64 48 l 5,4,-1
 64 0 l 5,5,-1
 48 0 l 5,6,-1
 48 48 l 5,7,-1
 16 48 l 1,8,-1
 16 0 l 1,9,-1
 0 0 l 1,0,-1
EndSplineSet
Validated: 5
EndChar

StartChar: o
Encoding: 111 111 59
Width: 72
Flags: W
LayerCount: 2
Fore
SplineSet
48 16 m 5,0,-1
 48 48 l 5,1,-1
 16 48 l 5,2,-1
 16 16 l 5,3,-1
 48 16 l 5,0,-1
16 16 m 5,4,-1
 0 16 l 5,5,-1
 0 48 l 5,6,-1
 16 48 l 5,7,-1
 16 64 l 5,8,-1
 48 64 l 5,9,-1
 48 48 l 5,10,-1
 64 48 l 5,11,-1
 64 16 l 5,12,-1
 48 16 l 5,13,-1
 48 0 l 5,14,-1
 16 0 l 5,15,-1
 16 16 l 5,4,-1
EndSplineSet
Validated: 5
EndChar

StartChar: p
Encoding: 112 112 60
Width: 72
Flags: W
LayerCount: 2
Fore
SplineSet
48 16 m 1,0,-1
 48 48 l 5,1,-1
 16 48 l 5,2,-1
 16 16 l 1,3,-1
 48 16 l 1,0,-1
0 -26 m 1,4,-1
 0 64 l 5,5,-1
 48 64 l 5,6,-1
 48 48 l 5,7,-1
 64 48 l 5,8,-1
 64 16 l 1,9,-1
 48 16 l 1,10,-1
 48 0 l 1,11,-1
 16 0 l 1,12,-1
 16 -26 l 1,13,-1
 0 -26 l 1,4,-1
EndSplineSet
Validated: 5
EndChar

StartChar: q
Encoding: 113 113 61
Width: 72
Flags: W
LayerCount: 2
Fore
SplineSet
16 16 m 1,0,-1
 16 48 l 5,1,-1
 48 48 l 5,2,-1
 48 16 l 1,3,-1
 16 16 l 1,0,-1
64 -30 m 1,4,-1
 64 64 l 5,5,-1
 16 64 l 5,6,-1
 16 48 l 5,7,-1
 0 48 l 5,8,-1
 0 16 l 1,9,-1
 16 16 l 1,10,-1
 16 0 l 1,11,-1
 48 0 l 1,12,-1
 48 -30 l 1,13,-1
 64 -30 l 1,4,-1
EndSplineSet
Validated: 5
EndChar

StartChar: r
Encoding: 114 114 62
Width: 72
Flags: W
LayerCount: 2
Fore
SplineSet
0 0 m 1,0,-1
 0 64 l 5,1,-1
 48 64 l 5,2,-1
 48 48 l 5,3,-1
 16 48 l 5,4,-1
 16 0 l 1,5,-1
 0 0 l 1,0,-1
EndSplineSet
Validated: 1
EndChar

StartChar: s
Encoding: 115 115 63
Width: 72
Flags: W
LayerCount: 2
Fore
SplineSet
48 16 m 1,0,-1
 48 0 l 5,1,-1
 0 0 l 1,2,-1
 0 16 l 1,3,-1
 32 16 l 1,4,-1
 32 16 l 1,5,-1
 32 32 l 1,6,-1
 0 32 l 1,7,-1
 0 48 l 1,8,-1
 16 48 l 1,9,-1
 16 64 l 1,10,-1
 64 64 l 1,11,-1
 64 48 l 1,12,-1
 32 48 l 1,13,-1
 32 32 l 1,14,-1
 64 32 l 1,15,-1
 64 16 l 1,16,-1
 48 16 l 1,0,-1
EndSplineSet
Validated: 5
EndChar

StartChar: t
Encoding: 116 116 64
Width: 72
Flags: W
LayerCount: 2
Fore
SplineSet
16 0 m 1,0,-1
 16 48 l 5,1,-1
 0 48 l 5,2,-1
 0 64 l 5,3,-1
 16 64 l 5,4,-1
 16 80 l 1,5,-1
 32 80 l 1,6,-1
 32 64 l 5,7,-1
 48 64 l 5,8,-1
 48 48 l 5,9,-1
 32 48 l 5,10,-1
 32 16 l 1,11,-1
 48 16 l 1,12,-1
 48 0 l 1,13,-1
 16 0 l 1,0,-1
EndSplineSet
Validated: 1
EndChar

StartChar: u
Encoding: 117 117 65
Width: 88
Flags: W
LayerCount: 2
Fore
SplineSet
16 16 m 1,0,-1
 0 16 l 1,1,-1
 0 64 l 5,2,-1
 16 64 l 5,3,-1
 16 16 l 1,4,-1
 32 16 l 1,5,-1
 32 64 l 5,6,-1
 48 64 l 5,7,-1
 48 16 l 1,8,-1
 64 16 l 1,9,-1
 64 0 l 1,10,-1
 16 0 l 1,11,-1
 16 16 l 1,0,-1
EndSplineSet
Validated: 5
EndChar

StartChar: v
Encoding: 118 118 66
Width: 72
Flags: W
LayerCount: 2
Fore
SplineSet
16 0 m 1,0,-1
 16 16 l 1,1,-1
 32 16 l 1,2,-1
 32 0 l 1,3,-1
 16 0 l 1,0,-1
0 16 m 1,4,-1
 0 64 l 5,5,-1
 16 64 l 5,6,-1
 16 16 l 1,7,-1
 0 16 l 1,4,-1
32 16 m 1,8,-1
 32 64 l 5,9,-1
 48 64 l 5,10,-1
 48 16 l 1,11,-1
 32 16 l 1,8,-1
EndSplineSet
Validated: 5
EndChar

StartChar: w
Encoding: 119 119 67
Width: 72
Flags: W
LayerCount: 2
Fore
SplineSet
48 0 m 1,0,-1
 48 16 l 1,1,-1
 64 16 l 1,2,-1
 64 0 l 1,3,-1
 48 0 l 1,0,-1
48 16 m 1025,4,-1
64 16 m 1,5,-1
 64 64 l 5,6,-1
 80 64 l 5,7,-1
 80 16 l 1,8,-1
 64 16 l 1,5,-1
16 0 m 1,9,-1
 16 16 l 1,10,-1
 32 16 l 1,11,-1
 32 0 l 1,12,-1
 16 0 l 1,9,-1
0 16 m 1,13,-1
 0 64 l 5,14,-1
 16 64 l 5,15,-1
 16 16 l 1,16,-1
 0 16 l 1,13,-1
32 16 m 1,17,-1
 32 32 l 1,18,-1
 48 32 l 1,19,-1
 48 16 l 1,20,-1
 32 16 l 1,17,-1
EndSplineSet
Validated: 5
EndChar

StartChar: x
Encoding: 120 120 68
Width: 88
Flags: W
LayerCount: 2
Fore
SplineSet
0 0 m 1025,0,-1
48 0 m 1025,1,-1
0 0 m 1,2,-1
 0 16 l 1,3,-1
 16 16 l 1,4,-1
 16 0 l 1,5,-1
 0 0 l 1,2,-1
32 0 m 1,6,-1
 32 16 l 1,7,-1
 48 16 l 1,8,-1
 48 0 l 1,9,-1
 32 0 l 1,6,-1
16 16 m 1,10,-1
 16 48 l 1,11,-1
 32 48 l 1,12,-1
 32 16 l 1,13,-1
 16 16 l 1,10,-1
0 48 m 1,14,-1
 0 64 l 1,15,-1
 16 64 l 1,16,-1
 16 48 l 1,17,-1
 0 48 l 1,14,-1
32 48 m 1,18,-1
 32 64 l 1,19,-1
 48 64 l 1,20,-1
 48 48 l 1,21,-1
 32 48 l 1,18,-1
0 64 m 1025,22,-1
48 64 m 1025,23,-1
EndSplineSet
Validated: 5
EndChar

StartChar: y
Encoding: 121 121 69
Width: 72
Flags: W
LayerCount: 2
Fore
SplineSet
0 -16 m 1,0,-1
 0 0 l 1,1,-1
 48 0 l 1,2,-1
 48 16 l 1,3,-1
 16 16 l 1,4,-1
 16 32 l 1,5,-1
 0 32 l 1,6,-1
 0 64 l 1,7,-1
 16 64 l 1,8,-1
 16 32 l 1,9,-1
 48 32 l 1,10,-1
 48 64 l 1,11,-1
 64 64 l 1,12,-1
 64 0 l 1,13,-1
 48 0 l 1,14,-1
 48 -16 l 1,15,-1
 0 -16 l 1,0,-1
EndSplineSet
Validated: 5
EndChar

StartChar: z
Encoding: 122 122 70
Width: 72
Flags: W
LayerCount: 2
Fore
SplineSet
0 0 m 1,0,-1
 64 0 l 1,1,-1
 64 16 l 5,2,-1
 32 16 l 1,3,-1
 32 32 l 1,4,-1
 48 32 l 1,5,-1
 48 48 l 1,6,-1
 64 48 l 1,7,-1
 64 64 l 1,8,-1
 0 64 l 1,9,-1
 0 48 l 1,10,-1
 32 48 l 1,11,-1
 32 32 l 1,12,-1
 16 32 l 1,13,-1
 16 16 l 1,14,-1
 0 16 l 1,15,-1
 0 0 l 1,0,-1
EndSplineSet
Validated: 5
EndChar

StartChar: quotedblleft
Encoding: 8220 8220 71
Width: 56
Flags: W
LayerCount: 2
Fore
SplineSet
0 64 m 1,0,-1
 0 96 l 1,1,-1
 16 96 l 1,2,-1
 16 64 l 1,3,-1
 0 64 l 1,0,-1
32 64 m 1,4,-1
 32 96 l 1,5,-1
 48 96 l 1,6,-1
 48 64 l 1,7,-1
 32 64 l 1,4,-1
EndSplineSet
Validated: 1
EndChar

StartChar: quotedblright
Encoding: 8221 8221 72
Width: 56
Flags: W
LayerCount: 2
Fore
SplineSet
0 64 m 1,0,-1
 0 96 l 1,1,-1
 16 96 l 1,2,-1
 16 64 l 1,3,-1
 0 64 l 1,0,-1
32 64 m 1,4,-1
 32 96 l 1,5,-1
 48 96 l 1,6,-1
 48 64 l 1,7,-1
 32 64 l 1,4,-1
EndSplineSet
Validated: 1
EndChar

StartChar: at
Encoding: 64 64 73
Width: 72
Flags: W
LayerCount: 2
Fore
SplineSet
0 0 m 5,0,-1
 0 80 l 5,1,-1
 64 80 l 5,2,-1
 64 32 l 5,3,-1
 32 32 l 5,4,-1
 32 64 l 5,5,-1
 16 64 l 5,6,-1
 16 16 l 5,7,-1
 64 16 l 5,8,-1
 64 0 l 5,9,-1
 0 0 l 5,0,-1
EndSplineSet
Validated: 1
EndChar

StartChar: quotedbl
Encoding: 34 34 74
Width: 72
Flags: W
LayerCount: 2
Fore
SplineSet
48 64 m 5,0,-1
 48 96 l 5,1,-1
 64 96 l 5,2,-1
 64 64 l 5,3,-1
 48 64 l 5,0,-1
16 64 m 5,4,-1
 16 96 l 5,5,-1
 32 96 l 5,6,-1
 32 64 l 5,7,-1
 16 64 l 5,4,-1
EndSplineSet
Validated: 1
EndChar

StartChar: dnblock
Encoding: 9604 9604 75
Width: 152
VWidth: 256
Flags: W
LayerCount: 2
Fore
SplineSet
0 -64 m 5,0,-1
 0 40 l 1,1,-1
 157 40 l 1,2,-1
 157 -64 l 1,3,-1
 0 -64 l 5,0,-1
EndSplineSet
Validated: 1
EndChar

StartChar: heart
Encoding: 9829 9829 76
Width: 88
Flags: W
LayerCount: 2
Fore
SplineSet
0 32 m 5,0,-1
 0 64 l 5,1,-1
 16 64 l 5,2,-1
 16 80 l 5,3,-1
 32 80 l 5,4,-1
 32 64 l 5,5,-1
 48 64 l 5,6,-1
 48 80 l 5,7,-1
 64 80 l 5,8,-1
 64 64 l 5,9,-1
 80 64 l 5,10,-1
 80 32 l 5,11,-1
 64 32 l 5,12,-1
 64 16 l 5,13,-1
 48 16 l 5,14,-1
 48 0 l 5,15,-1
 32 0 l 5,16,-1
 32 16 l 5,17,-1
 16 16 l 5,18,-1
 16 32 l 5,19,-1
 0 32 l 5,0,-1
EndSplineSet
Validated: 1
EndChar

StartChar: uni2206
Encoding: 8710 8710 77
Width: 88
Flags: W
LayerCount: 2
Fore
SplineSet
16 16 m 25,0,-1
 64 16 l 25,1,-1
 64 32 l 25,2,-1
 48 32 l 25,3,-1
 48 48 l 25,4,-1
 32 48 l 25,5,-1
 32 32 l 25,6,-1
 16 32 l 1049,7,-1
0 0 m 5,8,-1
 0 48 l 1,9,-1
 16 48 l 1,10,-1
 16 64 l 1,11,-1
 32 64 l 1,12,-1
 32 80 l 1,13,-1
 48 80 l 1,14,-1
 48 64 l 1,15,-1
 64 64 l 1,16,-1
 64 48 l 1,17,-1
 80 48 l 1,18,-1
 80 0 l 1025,19,-1
EndSplineSet
Validated: 3
EndChar

StartChar: uni1D16
Encoding: 7446 7446 78
Width: 88
Flags: W
LayerCount: 2
Fore
SplineSet
48 64 m 5,0,-1
 64 64 l 5,1,-1
 64 48 l 5,2,-1
 80 48 l 5,3,-1
 80 16 l 5,4,-1
 64 16 l 5,5,-1
 64 48 l 5,6,-1
 16 48 l 5,7,-1
 16 16 l 5,8,-1
 0 16 l 5,9,-1
 0 48 l 5,10,-1
 16 48 l 5,11,-1
 16 64 l 5,12,-1
 32 64 l 1029,13,-1
EndSplineSet
Validated: 3
EndChar

StartChar: asciitilde
Encoding: 126 126 79
Width: 72
Flags: W
LayerCount: 2
Fore
SplineSet
32 48 m 5,0,-1
 16 48 l 5,1,-1
 16 32 l 5,2,-1
 0 32 l 5,3,-1
 0 48 l 5,4,-1
 16 48 l 5,5,-1
 16 64 l 5,6,-1
 32 64 l 5,7,-1
 32 48 l 5,0,-1
64 64 m 5,8,-1
 48 64 l 5,9,-1
 48 48 l 5,10,-1
 32 48 l 5,11,-1
 32 32 l 5,12,-1
 48 32 l 5,13,-1
 48 48 l 5,14,-1
 64 48 l 5,15,-1
 64 64 l 5,8,-1
EndSplineSet
Validated: 5
EndChar

StartChar: approxequal
Encoding: 8776 8776 80
Width: 72
Flags: W
LayerCount: 2
Fore
SplineSet
32 16 m 1,0,-1
 16 16 l 1,1,-1
 16 0 l 1,2,-1
 0 0 l 1,3,-1
 0 16 l 1,4,-1
 16 16 l 1,5,-1
 16 32 l 1,6,-1
 32 32 l 1025,7,-1
64 32 m 1,8,-1
 48 32 l 1,9,-1
 48 16 l 1,10,-1
 32 16 l 1,11,-1
 32 0 l 1,12,-1
 48 0 l 1,13,-1
 48 16 l 1,14,-1
 64 16 l 1029,15,-1
32 64 m 1,16,-1
 16 64 l 1,17,-1
 16 48 l 1,18,-1
 0 48 l 1,19,-1
 0 64 l 1,20,-1
 16 64 l 1,21,-1
 16 80 l 1,22,-1
 32 80 l 1025,23,-1
64 80 m 1,24,-1
 48 80 l 1,25,-1
 48 64 l 1,26,-1
 32 64 l 1,27,-1
 32 48 l 1,28,-1
 48 48 l 1,29,-1
 48 64 l 1,30,-1
 64 64 l 1025,31,-1
EndSplineSet
Validated: 3
EndChar

StartChar: uni01C1
Encoding: 449 449 81
Width: 72
Flags: W
LayerCount: 2
Fore
SplineSet
48 0 m 1,0,-1
 32 0 l 1,1,-1
 32 80 l 1,2,-1
 48 80 l 1025,3,-1
16 0 m 1,4,-1
 0 0 l 1,5,-1
 0 80 l 1,6,-1
 16 80 l 1025,7,-1
EndSplineSet
Validated: 3
EndChar

StartChar: uni2648
Encoding: 9800 9800 82
Width: 88
Flags: W
LayerCount: 2
Fore
SplineSet
80 32 m 1,0,-1
 64 32 l 1,1,-1
 64 48 l 1,2,-1
 80 48 l 1,3,-1
 80 32 l 1,0,-1
64 48 m 1,4,-1
 48 48 l 1,5,-1
 48 64 l 1,6,-1
 64 64 l 1,7,-1
 64 48 l 1,4,-1
48 0 m 1,8,-1
 32 0 l 1,9,-1
 32 48 l 1,10,-1
 48 48 l 1,11,-1
 48 0 l 1,8,-1
16 32 m 1,12,-1
 0 32 l 1,13,-1
 0 48 l 1,14,-1
 16 48 l 1,15,-1
 16 32 l 1,12,-1
32 48 m 1,16,-1
 16 48 l 1,17,-1
 16 64 l 1,18,-1
 32 64 l 1,19,-1
 32 48 l 1,16,-1
EndSplineSet
Validated: 5
EndChar

StartChar: slash
Encoding: 47 47 83
Width: 88
Flags: W
LayerCount: 2
Fore
SplineSet
64 64 m 5,0,-1
 64 80 l 5,1,-1
 80 80 l 5,2,-1
 80 64 l 5,3,-1
 64 64 l 5,0,-1
32 32 m 5,4,-1
 32 48 l 5,5,-1
 48 48 l 5,6,-1
 48 32 l 5,7,-1
 32 32 l 5,4,-1
16 16 m 5,8,-1
 16 32 l 5,9,-1
 32 32 l 5,10,-1
 32 16 l 5,11,-1
 16 16 l 5,8,-1
48 48 m 5,12,-1
 48 64 l 5,13,-1
 64 64 l 5,14,-1
 64 48 l 5,15,-1
 48 48 l 5,12,-1
0 0 m 5,16,-1
 0 16 l 5,17,-1
 16 16 l 5,18,-1
 16 0 l 5,19,-1
 0 0 l 5,16,-1
EndSplineSet
Validated: 5
EndChar

StartChar: percent
Encoding: 37 37 84
Width: 88
Flags: W
LayerCount: 2
Fore
SplineSet
64 0 m 1,0,-1
 64 16 l 1,1,-1
 80 16 l 1,2,-1
 80 0 l 1,3,-1
 64 0 l 1,0,-1
64 0 m 1025,4,-1
0 64 m 1,5,-1
 0 80 l 1,6,-1
 16 80 l 1,7,-1
 16 64 l 1,8,-1
 0 64 l 1,5,-1
0 64 m 1025,9,-1
64 64 m 1,10,-1
 64 80 l 1,11,-1
 80 80 l 1,12,-1
 80 64 l 1,13,-1
 64 64 l 1,10,-1
32 32 m 1,14,-1
 32 48 l 1,15,-1
 48 48 l 1,16,-1
 48 32 l 1,17,-1
 32 32 l 1,14,-1
16 16 m 1,18,-1
 16 32 l 1,19,-1
 32 32 l 1,20,-1
 32 16 l 1,21,-1
 16 16 l 1,18,-1
48 48 m 1,22,-1
 48 64 l 1,23,-1
 64 64 l 1,24,-1
 64 48 l 1,25,-1
 48 48 l 1,22,-1
0 0 m 1,26,-1
 0 16 l 1,27,-1
 16 16 l 1,28,-1
 16 0 l 1,29,-1
 0 0 l 1,26,-1
EndSplineSet
Validated: 5
EndChar

StartChar: asterisk
Encoding: 42 42 85
Width: 88
Flags: W
LayerCount: 2
Fore
SplineSet
48 16 m 1,0,-1
 48 32 l 1,1,-1
 64 32 l 1,2,-1
 64 16 l 1,3,-1
 48 16 l 1,0,-1
48 16 m 1025,4,-1
16 48 m 1,5,-1
 16 64 l 1,6,-1
 32 64 l 1,7,-1
 32 48 l 1,8,-1
 16 48 l 1,5,-1
16 48 m 1025,9,-1
32 32 m 1,10,-1
 32 48 l 1,11,-1
 48 48 l 1,12,-1
 48 32 l 1,13,-1
 32 32 l 1,10,-1
16 16 m 1,14,-1
 16 32 l 1,15,-1
 32 32 l 1,16,-1
 32 16 l 1,17,-1
 16 16 l 1,14,-1
48 48 m 1,18,-1
 48 64 l 1,19,-1
 64 64 l 1,20,-1
 64 48 l 1,21,-1
 48 48 l 1,18,-1
EndSplineSet
Validated: 5
EndChar

StartChar: hyphen
Encoding: 45 45 86
Width: 88
Flags: W
LayerCount: 2
Fore
SplineSet
0 32 m 5,0,-1
 0 48 l 5,1,-1
 80 48 l 5,2,-1
 80 32 l 5,3,-1
 0 32 l 5,0,-1
EndSplineSet
Validated: 1
EndChar

StartChar: SF010000
Encoding: 9484 9484 87
Width: 96
Flags: W
LayerCount: 2
Fore
SplineSet
32 -32 m 1,0,-1
 32 48 l 1,1,-1
 96 48 l 1,2,-1
 96 32 l 1,3,-1
 48 32 l 1,4,-1
 48 -32 l 1,5,-1
 32 -32 l 1,0,-1
EndSplineSet
EndChar

StartChar: SF030000
Encoding: 9488 9488 88
Width: 88
Flags: W
LayerCount: 2
Fore
SplineSet
48 -32 m 5,0,-1
 48 48 l 1,1,-1
 0 48 l 1,2,-1
 0 32 l 1,3,-1
 32 32 l 1,4,-1
 32 -32 l 5,5,-1
 48 -32 l 5,0,-1
EndSplineSet
EndChar

StartChar: SF020000
Encoding: 9492 9492 89
Width: 88
Flags: W
LayerCount: 2
Fore
SplineSet
32 96 m 1,0,-1
 32 32 l 5,1,-1
 88 32 l 5,2,-1
 88 48 l 5,3,-1
 48 48 l 5,4,-1
 48 96 l 1,5,-1
 32 96 l 1,0,-1
EndSplineSet
EndChar

StartChar: SF040000
Encoding: 9496 9496 90
Width: 88
Flags: W
LayerCount: 2
Fore
SplineSet
48 96 m 1,0,-1
 48 32 l 5,1,-1
 0 32 l 5,2,-1
 0 48 l 5,3,-1
 32 48 l 5,4,-1
 32 96 l 1,5,-1
 48 96 l 1,0,-1
EndSplineSet
EndChar

StartChar: SF110000
Encoding: 9474 9474 91
Width: 88
Flags: W
LayerCount: 2
Fore
SplineSet
48 -26 m 5,0,-1
 32 -26 l 5,1,-1
 32 102 l 5,2,-1
 48 102 l 5,3,-1
 48 -26 l 5,0,-1
EndSplineSet
Validated: 1
EndChar

StartChar: SF100000
Encoding: 9472 9472 92
Width: 88
Flags: W
LayerCount: 2
Fore
SplineSet
0 32 m 1,0,-1
 0 48 l 1,1,-1
 88 48 l 5,2,-1
 88 32 l 5,3,-1
 0 32 l 1,0,-1
EndSplineSet
EndChar

StartChar: SF070000
Encoding: 9524 9524 93
Width: 88
Flags: W
LayerCount: 2
Fore
SplineSet
32 102 m 5,0,-1
 32 48 l 5,1,-1
 0 48 l 5,2,-1
 0 32 l 5,3,-1
 98 32 l 5,4,-1
 98 48 l 5,5,-1
 48 48 l 5,6,-1
 48 102 l 5,7,-1
 32 102 l 5,0,-1
EndSplineSet
Validated: 9
EndChar

StartChar: SF430000
Encoding: 9552 9552 94
Width: 88
Flags: W
LayerCount: 2
Fore
SplineSet
0 16 m 1,0,-1
 0 32 l 1,1,-1
 98 32 l 5,2,-1
 98 16 l 1,3,-1
 0 16 l 1,0,-1
0 48 m 1,4,-1
 0 64 l 1,5,-1
 98 64 l 1,6,-1
 98 48 l 1,7,-1
 0 48 l 1,4,-1
EndSplineSet
Validated: 1
EndChar

StartChar: SF240000
Encoding: 9553 9553 95
Width: 88
Flags: W
LayerCount: 2
Fore
SplineSet
64 -32 m 5,0,-1
 48 -32 l 5,1,-1
 48 96 l 1,2,-1
 64 96 l 1,3,-1
 64 -32 l 5,0,-1
32 -32 m 5,4,-1
 16 -32 l 5,5,-1
 16 96 l 1,6,-1
 32 96 l 1,7,-1
 32 -32 l 5,4,-1
EndSplineSet
Validated: 1
EndChar

StartChar: SF380000
Encoding: 9562 9562 96
Width: 88
Flags: W
LayerCount: 2
Fore
SplineSet
16 96 m 1,0,-1
 16 16 l 1,1,-1
 98 16 l 1,2,-1
 98 32 l 1,3,-1
 32 32 l 1,4,-1
 32 96 l 1,5,-1
 16 96 l 1,0,-1
48 96 m 1,6,-1
 48 48 l 1,7,-1
 98 48 l 1,8,-1
 98 64 l 1,9,-1
 64 64 l 1,10,-1
 64 96 l 1,11,-1
 48 96 l 1,6,-1
EndSplineSet
Validated: 9
EndChar

StartChar: SF260000
Encoding: 9565 9565 97
Width: 704
VWidth: 1024
Flags: W
LayerCount: 2
Fore
SplineSet
512 768 m 5,0,-1
 512 126 l 1,1,-1
 0 126 l 1,2,-1
 0 254 l 1,3,-1
 384 254 l 1,4,-1
 384 768 l 5,5,-1
 512 768 l 5,0,-1
256 768 m 1,6,-1
 256 382 l 1,7,-1
 0 382 l 1,8,-1
 0 510 l 1,9,-1
 128 510 l 1,10,-1
 128 768 l 1,11,-1
 256 768 l 1,6,-1
EndSplineSet
Validated: 1
EndChar

StartChar: SF390000
Encoding: 9556 9556 98
Width: 88
Flags: W
LayerCount: 2
Fore
SplineSet
16 -32 m 1,0,-1
 16 63 l 1,1,-1
 98 63 l 1,2,-1
 98 47 l 1,3,-1
 32 47 l 1,4,-1
 32 -32 l 1,5,-1
 16 -32 l 1,0,-1
48 -32 m 1,6,-1
 48 32 l 1,7,-1
 98 32 l 1,8,-1
 98 16 l 1,9,-1
 64 16 l 1,10,-1
 64 -32 l 1,11,-1
 48 -32 l 1,6,-1
EndSplineSet
Validated: 1
EndChar

StartChar: SF250000
Encoding: 9559 9559 99
Width: 88
Flags: W
LayerCount: 2
Fore
SplineSet
64 -32 m 1,0,-1
 64 64 l 1,1,-1
 0 64 l 1,2,-1
 0 48 l 5,3,-1
 48 48 l 5,4,-1
 48 -32 l 1,5,-1
 64 -32 l 1,0,-1
32 -32 m 1,6,-1
 32 32 l 1,7,-1
 0 32 l 1,8,-1
 0 16 l 1,9,-1
 16 16 l 1,10,-1
 16 -32 l 1,11,-1
 32 -32 l 1,6,-1
EndSplineSet
Validated: 9
EndChar

StartChar: plus
Encoding: 43 43 100
Width: 88
Flags: W
LayerCount: 2
Fore
SplineSet
48 0 m 5,0,-1
 48 32 l 5,1,-1
 80 32 l 5,2,-1
 80 48 l 5,3,-1
 48 48 l 5,4,-1
 48 80 l 5,5,-1
 32 80 l 5,6,-1
 32 48 l 5,7,-1
 0 48 l 5,8,-1
 0 32 l 5,9,-1
 32 32 l 5,10,-1
 32 0 l 5,11,-1
 48 0 l 5,0,-1
EndSplineSet
Validated: 9
EndChar

StartChar: parenleft
Encoding: 40 40 101
Width: 88
Flags: W
LayerCount: 2
Fore
SplineSet
32 64 m 5,0,-1
 32 80 l 5,1,-1
 48 80 l 5,2,-1
 48 64 l 5,3,-1
 32 64 l 5,0,-1
16 16 m 5,4,-1
 16 64 l 5,5,-1
 32 64 l 5,6,-1
 32 16 l 5,7,-1
 16 16 l 5,4,-1
32 0 m 5,8,-1
 32 16 l 5,9,-1
 48 16 l 5,10,-1
 48 0 l 5,11,-1
 32 0 l 5,8,-1
EndSplineSet
Validated: 5
EndChar

StartChar: parenright
Encoding: 41 41 102
Width: 88
Flags: W
LayerCount: 2
Fore
SplineSet
32 64 m 5,0,-1
 32 80 l 5,1,-1
 16 80 l 5,2,-1
 16 64 l 5,3,-1
 32 64 l 5,0,-1
48 16 m 5,4,-1
 48 64 l 5,5,-1
 32 64 l 5,6,-1
 32 16 l 5,7,-1
 48 16 l 5,4,-1
32 0 m 5,8,-1
 32 16 l 5,9,-1
 16 16 l 5,10,-1
 16 0 l 5,11,-1
 32 0 l 5,8,-1
EndSplineSet
Validated: 5
EndChar

StartChar: colon
Encoding: 58 58 103
Width: 24
Flags: W
LayerCount: 2
Fore
SplineSet
0 48 m 5,0,-1
 0 64 l 5,1,-1
 16 64 l 5,2,-1
 16 48 l 5,3,-1
 0 48 l 5,0,-1
0 0 m 5,4,-1
 0 16 l 5,5,-1
 16 16 l 5,6,-1
 16 0 l 5,7,-1
 0 0 l 5,4,-1
EndSplineSet
Validated: 1
EndChar

StartChar: H18533
Encoding: 9679 9679 104
Width: 88
Flags: W
LayerCount: 2
Fore
SplineSet
64 16 m 1,0,-1
 16 16 l 1,1,-1
 16 64 l 1,2,-1
 64 64 l 1,3,-1
 64 16 l 1,0,-1
EndSplineSet
Validated: 1
EndChar

StartChar: arrowup
Encoding: 8593 8593 105
Width: 88
Flags: W
LayerCount: 2
Fore
SplineSet
48 0 m 5,0,-1
 48 32 l 5,1,-1
 80 32 l 5,2,-1
 80 48 l 5,3,-1
 64 48 l 5,4,-1
 64 64 l 5,5,-1
 48 64 l 5,6,-1
 48 80 l 5,7,-1
 32 80 l 5,8,-1
 32 64 l 5,9,-1
 16 64 l 5,10,-1
 16 48 l 5,11,-1
 0 48 l 5,12,-1
 0 32 l 5,13,-1
 32 32 l 5,14,-1
 32 0 l 5,15,-1
 48 0 l 5,0,-1
EndSplineSet
Validated: 9
EndChar

StartChar: arrowdown
Encoding: 8595 8595 106
Width: 88
Flags: W
LayerCount: 2
Fore
SplineSet
48 80 m 5,0,-1
 48 48 l 5,1,-1
 80 48 l 5,2,-1
 80 32 l 5,3,-1
 64 32 l 5,4,-1
 64 16 l 5,5,-1
 48 16 l 5,6,-1
 48 0 l 5,7,-1
 32 0 l 5,8,-1
 32 16 l 5,9,-1
 16 16 l 5,10,-1
 16 32 l 5,11,-1
 0 32 l 5,12,-1
 0 48 l 5,13,-1
 32 48 l 5,14,-1
 32 80 l 5,15,-1
 48 80 l 5,0,-1
EndSplineSet
Validated: 1
EndChar

StartChar: bracketleft
Encoding: 91 91 107
Width: 72
Flags: W
LayerCount: 2
Fore
SplineSet
16 0 m 5,0,-1
 16 80 l 5,1,-1
 48 80 l 5,2,-1
 48 64 l 5,3,-1
 32 64 l 5,4,-1
 32 16 l 5,5,-1
 48 16 l 5,6,-1
 48 0 l 5,7,-1
 16 0 l 5,0,-1
EndSplineSet
Validated: 1
EndChar

StartChar: backslash
Encoding: 92 92 108
Width: 88
Flags: W
LayerCount: 2
Fore
SplineSet
16 64 m 5,0,-1
 16 80 l 5,1,-1
 0 80 l 5,2,-1
 0 64 l 5,3,-1
 16 64 l 5,0,-1
48 32 m 5,4,-1
 48 48 l 5,5,-1
 32 48 l 5,6,-1
 32 32 l 5,7,-1
 48 32 l 5,4,-1
64 16 m 5,8,-1
 64 32 l 5,9,-1
 48 32 l 5,10,-1
 48 16 l 5,11,-1
 64 16 l 5,8,-1
32 48 m 5,12,-1
 32 64 l 5,13,-1
 16 64 l 5,14,-1
 16 48 l 5,15,-1
 32 48 l 5,12,-1
80 0 m 5,16,-1
 80 16 l 5,17,-1
 64 16 l 5,18,-1
 64 0 l 5,19,-1
 80 0 l 5,16,-1
EndSplineSet
Validated: 5
EndChar

StartChar: bracketright
Encoding: 93 93 109
Width: 72
Flags: W
LayerCount: 2
Fore
SplineSet
48 0 m 5,0,-1
 48 80 l 5,1,-1
 16 80 l 5,2,-1
 16 64 l 5,3,-1
 32 64 l 5,4,-1
 32 16 l 5,5,-1
 16 16 l 5,6,-1
 16 0 l 5,7,-1
 48 0 l 5,0,-1
EndSplineSet
Validated: 9
EndChar

StartChar: bar
Encoding: 124 124 110
Width: 72
Flags: W
LayerCount: 2
Fore
SplineSet
32 0 m 1,0,-1
 32 80 l 1,1,-1
 48 80 l 1,2,-1
 48 0 l 1,3,-1
 32 0 l 1,0,-1
EndSplineSet
Validated: 1
EndChar

StartChar: uni2240
Encoding: 8768 8768 112
Width: 72
Flags: W
LayerCount: 2
Fore
SplineSet
32 32 m 5,0,-1
 32 48 l 5,1,-1
 16 48 l 5,2,-1
 16 64 l 5,3,-1
 32 64 l 5,4,-1
 32 48 l 5,5,-1
 48 48 l 5,6,-1
 48 32 l 5,7,-1
 32 32 l 5,0,-1
48 0 m 5,8,-1
 48 16 l 5,9,-1
 32 16 l 5,10,-1
 32 32 l 5,11,-1
 16 32 l 5,12,-1
 16 16 l 5,13,-1
 32 16 l 5,14,-1
 32 0 l 5,15,-1
 48 0 l 5,8,-1
EndSplineSet
Validated: 5
EndChar

StartChar: shade
Encoding: 9618 9618 113
Width: 96
Flags: W
LayerCount: 2
Fore
SplineSet
96 -32 m 1,0,-1
 96 -16 l 1,1,-1
 80 -16 l 1,2,-1
 80 -32 l 1,3,-1
 96 -32 l 1,0,-1
80 -16 m 1025,4,-1
96 80 m 1025,5,-1
96 64 m 1,6,-1
 96 80 l 1,7,-1
 80 80 l 1,8,-1
 80 64 l 1,9,-1
 96 64 l 1,6,-1
96 48 m 1025,10,-1
96 32 m 1,11,-1
 80 32 l 1,12,-1
 80 48 l 1,13,-1
 96 48 l 1,14,-1
 96 32 l 1,11,-1
96 0 m 1,15,-1
 96 16 l 1,16,-1
 80 16 l 1,17,-1
 80 0 l 1,18,-1
 96 0 l 1,15,-1
80 80 m 1025,19,-1
64 -32 m 1,20,-1
 48 -32 l 1025,21,-1
32 -32 m 1,22,-1
 16 -32 l 1025,23,-1
48 -32 m 1,24,-1
 64 -32 l 1025,25,-1
16 -32 m 1,26,-1
 32 -32 l 1025,27,-1
80 -16 m 1,28,-1
 80 0 l 1,29,-1
 64 0 l 1,30,-1
 64 -16 l 1,31,-1
 80 -16 l 1,28,-1
64 0 m 1,32,-1
 48 0 l 1025,33,-1
64 -32 m 1,34,-1
 64 -16 l 1,35,-1
 48 -16 l 1,36,-1
 48 0 l 1,37,-1
 32 0 l 1,38,-1
 32 -16 l 1,39,-1
 48 -16 l 1,40,-1
 48 -32 l 1,41,-1
 64 -32 l 1,34,-1
32 0 m 1,42,-1
 16 0 l 1025,43,-1
32 -32 m 1,44,-1
 32 -16 l 1,45,-1
 16 -16 l 1,46,-1
 16 0 l 1,47,-1
 0 0 l 1,48,-1
 0 -16 l 1,49,-1
 16 -16 l 1,50,-1
 16 -32 l 1,51,-1
 32 -32 l 1,44,-1
80 80 m 1,52,-1
 80 96 l 1,53,-1
 64 96 l 1,54,-1
 64 80 l 1,55,-1
 80 80 l 1,52,-1
80 48 m 1,56,-1
 64 48 l 1,57,-1
 64 64 l 1,58,-1
 80 64 l 1,59,-1
 80 48 l 1,56,-1
80 16 m 1,60,-1
 80 32 l 1,61,-1
 64 32 l 1,62,-1
 64 16 l 1,63,-1
 80 16 l 1,60,-1
64 64 m 1,64,-1
 64 80 l 1,65,-1
 48 80 l 1,66,-1
 48 96 l 1,67,-1
 32 96 l 1,68,-1
 32 80 l 1,69,-1
 48 80 l 1,70,-1
 48 64 l 1,71,-1
 64 64 l 1,64,-1
32 64 m 1,72,-1
 32 80 l 1,73,-1
 16 80 l 1,74,-1
 16 96 l 1,75,-1
 0 96 l 1,76,-1
 0 80 l 1,77,-1
 16 80 l 1,78,-1
 16 64 l 1,79,-1
 32 64 l 1,72,-1
48 32 m 1,80,-1
 48 48 l 1,81,-1
 32 48 l 1,82,-1
 32 64 l 1,83,-1
 48 64 l 1,84,-1
 48 48 l 1,85,-1
 64 48 l 1,86,-1
 64 32 l 1,87,-1
 48 32 l 1,80,-1
64 0 m 1,88,-1
 64 16 l 1,89,-1
 48 16 l 1,90,-1
 48 32 l 1,91,-1
 32 32 l 1,92,-1
 32 16 l 1,93,-1
 48 16 l 1,94,-1
 48 0 l 1,95,-1
 64 0 l 1,88,-1
16 32 m 1,96,-1
 16 48 l 1,97,-1
 0 48 l 1,98,-1
 0 64 l 1,99,-1
 16 64 l 1,100,-1
 16 48 l 1,101,-1
 32 48 l 1,102,-1
 32 32 l 1,103,-1
 16 32 l 1,96,-1
32 0 m 1,104,-1
 32 16 l 1,105,-1
 16 16 l 1,106,-1
 16 32 l 1,107,-1
 0 32 l 1,108,-1
 0 16 l 1,109,-1
 16 16 l 1,110,-1
 16 0 l 1,111,-1
 32 0 l 1,104,-1
EndSplineSet
Validated: 3083
EndChar

StartChar: underscore
Encoding: 95 95 114
Width: 88
Flags: W
LayerCount: 2
Fore
SplineSet
0 -16 m 5,0,-1
 0 0 l 5,1,-1
 96 0 l 5,2,-1
 96 -16 l 5,3,-1
 0 -16 l 5,0,-1
EndSplineSet
Validated: 1
EndChar

StartChar: less
Encoding: 60 60 115
Width: 88
Flags: W
LayerCount: 2
Fore
SplineSet
48 64 m 5,0,-1
 48 80 l 5,1,-1
 32 80 l 5,2,-1
 32 64 l 5,3,-1
 48 64 l 5,0,-1
16 32 m 5,4,-1
 16 48 l 5,5,-1
 0 48 l 5,6,-1
 0 32 l 5,7,-1
 16 32 l 5,4,-1
32 16 m 5,8,-1
 32 32 l 5,9,-1
 16 32 l 5,10,-1
 16 16 l 5,11,-1
 32 16 l 5,8,-1
32 48 m 5,12,-1
 32 64 l 5,13,-1
 16 64 l 5,14,-1
 16 48 l 5,15,-1
 32 48 l 5,12,-1
48 0 m 5,16,-1
 48 16 l 5,17,-1
 32 16 l 5,18,-1
 32 0 l 5,19,-1
 48 0 l 5,16,-1
EndSplineSet
Validated: 5
EndChar

StartChar: greater
Encoding: 62 62 116
Width: 88
Flags: W
LayerCount: 2
Fore
SplineSet
0 64 m 5,0,-1
 0 80 l 5,1,-1
 16 80 l 5,2,-1
 16 64 l 5,3,-1
 0 64 l 5,0,-1
32 32 m 5,4,-1
 32 48 l 5,5,-1
 48 48 l 5,6,-1
 48 32 l 5,7,-1
 32 32 l 5,4,-1
16 16 m 5,8,-1
 16 32 l 5,9,-1
 32 32 l 5,10,-1
 32 16 l 5,11,-1
 16 16 l 5,8,-1
16 48 m 5,12,-1
 16 64 l 5,13,-1
 32 64 l 5,14,-1
 32 48 l 5,15,-1
 16 48 l 5,12,-1
0 0 m 5,16,-1
 0 16 l 5,17,-1
 16 16 l 5,18,-1
 16 0 l 5,19,-1
 0 0 l 5,16,-1
EndSplineSet
Validated: 5
EndChar

StartChar: semicolon
Encoding: 59 59 117
Width: 24
Flags: W
LayerCount: 2
Fore
SplineSet
0 -16 m 1,0,-1
 0 0 l 1,1,-1
 16 0 l 1,2,-1
 16 -16 l 1,3,-1
 0 -16 l 1,0,-1
16 48 m 1,4,-1
 16 64 l 1,5,-1
 32 64 l 1,6,-1
 32 48 l 1,7,-1
 16 48 l 1,4,-1
16 0 m 1,8,-1
 16 16 l 1,9,-1
 32 16 l 1,10,-1
 32 0 l 1,11,-1
 16 0 l 1,8,-1
EndSplineSet
Validated: 5
EndChar

StartChar: asciicircum
Encoding: 94 94 118
Width: 88
Flags: W
LayerCount: 2
Fore
SplineSet
32 64 m 5,0,-1
 32 80 l 5,1,-1
 16 80 l 5,2,-1
 16 64 l 5,3,-1
 32 64 l 5,0,-1
64 64 m 5,4,-1
 64 80 l 5,5,-1
 48 80 l 5,6,-1
 48 64 l 5,7,-1
 64 64 l 5,4,-1
80 48 m 5,8,-1
 80 64 l 5,9,-1
 64 64 l 5,10,-1
 64 48 l 5,11,-1
 80 48 l 5,8,-1
48 80 m 5,12,-1
 48 96 l 5,13,-1
 32 96 l 5,14,-1
 32 80 l 5,15,-1
 48 80 l 5,12,-1
16 48 m 5,16,-1
 16 64 l 5,17,-1
 0 64 l 5,18,-1
 0 48 l 5,19,-1
 16 48 l 5,16,-1
EndSplineSet
Validated: 5
EndChar

StartChar: grave
Encoding: 96 96 119
Width: 96
Flags: W
LayerCount: 2
Fore
SplineSet
16 64 m 1,0,-1
 16 80 l 1,1,-1
 0 80 l 1,2,-1
 0 64 l 1,3,-1
 16 64 l 1,0,-1
32 48 m 1,4,-1
 32 64 l 1,5,-1
 16 64 l 1,6,-1
 16 48 l 1,7,-1
 32 48 l 1,4,-1
0 80 m 1025,8,-1
EndSplineSet
Validated: 5
EndChar

StartChar: braceleft
Encoding: 123 123 120
Width: 88
Flags: W
LayerCount: 2
Fore
SplineSet
48 16 m 1,0,-1
 48 0 l 1,1,-1
 16 0 l 1,2,-1
 16 32 l 1,3,-1
 0 32 l 1,4,-1
 0 48 l 1,5,-1
 16 48 l 1,6,-1
 16 80 l 1,7,-1
 48 80 l 1,8,-1
 48 64 l 1,9,-1
 32 64 l 1,10,-1
 32 16 l 1,11,-1
 48 16 l 1,0,-1
EndSplineSet
Validated: 1
EndChar

StartChar: braceright
Encoding: 125 125 121
Width: 88
Flags: W
LayerCount: 2
Fore
SplineSet
0 16 m 5,0,-1
 0 0 l 5,1,-1
 32 0 l 5,2,-1
 32 32 l 5,3,-1
 48 32 l 5,4,-1
 48 48 l 5,5,-1
 32 48 l 5,6,-1
 32 80 l 5,7,-1
 0 80 l 5,8,-1
 0 64 l 5,9,-1
 16 64 l 5,10,-1
 16 16 l 5,11,-1
 0 16 l 5,0,-1
EndSplineSet
Validated: 9
EndChar

StartChar: sigma1
Encoding: 962 962 122
Width: 72
Flags: W
LayerCount: 2
Fore
SplineSet
48 0 m 1,0,-1
 16 0 l 1,1,-1
 16 16 l 1,2,-1
 0 16 l 1,3,-1
 0 48 l 1,4,-1
 16 48 l 1,5,-1
 16 64 l 1,6,-1
 64 64 l 1,7,-1
 64 48 l 1,8,-1
 16 48 l 1,9,-1
 16 16 l 1,10,-1
 64 16 l 1,11,-1
 64 -16 l 1,12,-1
 48 -16 l 1,13,-1
 48 0 l 1,0,-1
EndSplineSet
Validated: 5
EndChar

StartChar: section
Encoding: 167 167 123
Width: 72
Flags: W
LayerCount: 2
Fore
SplineSet
41 48 m 5,0,-1
 48 48 l 5,1,-1
 48 32 l 5,2,-1
 16 32 l 5,3,-1
 16 48 l 5,4,-1
 25 48 l 5,5,-1
 25 40 l 5,6,-1
 41 40 l 5,7,-1
 41 48 l 5,0,-1
16 16 m 5,8,-1
 48 16 l 5,9,-1
 48 0 l 5,10,-1
 16 0 l 5,11,-1
 16 16 l 5,8,-1
48 16 m 5,12,-1
 64 16 l 5,13,-1
 64 32 l 5,14,-1
 48 32 l 5,15,-1
 48 16 l 5,12,-1
0 48 m 5,16,-1
 0 64 l 5,17,-1
 16 64 l 5,18,-1
 16 80 l 5,19,-1
 48 80 l 5,20,-1
 48 64 l 5,21,-1
 16 64 l 5,22,-1
 16 56 l 5,23,-1
 48 56 l 5,24,-1
 48 48 l 5,25,-1
 0 48 l 5,16,-1
EndSplineSet
Validated: 5
EndChar

StartChar: alpha
Encoding: 945 945 124
Width: 88
Flags: W
LayerCount: 2
Fore
SplineSet
64 48 m 5,0,-1
 64 64 l 5,1,-1
 80 64 l 5,2,-1
 80 48 l 5,3,-1
 64 48 l 5,0,-1
48 16 m 5,4,-1
 48 48 l 5,5,-1
 16 48 l 5,6,-1
 16 16 l 5,7,-1
 48 16 l 5,4,-1
80 16 m 5,8,-1
 80 0 l 5,9,-1
 16 0 l 5,10,-1
 16 16 l 5,11,-1
 0 16 l 5,12,-1
 0 48 l 5,13,-1
 16 48 l 5,14,-1
 16 64 l 5,15,-1
 48 64 l 5,16,-1
 48 48 l 5,17,-1
 64 48 l 5,18,-1
 64 16 l 5,19,-1
 80 16 l 5,8,-1
EndSplineSet
Validated: 5
EndChar

StartChar: Lambda
Encoding: 923 923 125
Width: 88
Flags: W
LayerCount: 2
Fore
SplineSet
32 32 m 1,0,-1
 32 64 l 1,1,-1
 16 64 l 1,2,-1
 16 32 l 1,3,-1
 32 32 l 1,0,-1
64 32 m 1,4,-1
 64 64 l 1,5,-1
 48 64 l 1,6,-1
 48 32 l 1,7,-1
 64 32 l 1,4,-1
80 0 m 1,8,-1
 80 32 l 1,9,-1
 64 32 l 1,10,-1
 64 0 l 1,11,-1
 80 0 l 1,8,-1
48 64 m 1,12,-1
 48 80 l 1,13,-1
 32 80 l 1,14,-1
 32 64 l 1,15,-1
 48 64 l 1,12,-1
16 0 m 1,16,-1
 16 32 l 1,17,-1
 0 32 l 1,18,-1
 0 0 l 1,19,-1
 16 0 l 1,16,-1
EndSplineSet
Validated: 5
EndChar

StartChar: block
Encoding: 9608 9608 126
Width: 152
VWidth: 256
Flags: W
LayerCount: 2
Fore
SplineSet
0 -64 m 5,0,-1
 0 96 l 5,1,-1
 156 96 l 1,2,-1
 157 -64 l 1,3,-1
 0 -64 l 5,0,-1
EndSplineSet
Validated: 1
EndChar

StartChar: numbersign
Encoding: 35 35 127
Width: 80
Flags: W
LayerCount: 2
Fore
SplineSet
48 32 m 5,0,-1
 48 64 l 1,1,-1
 32 64 l 1,2,-1
 32 32 l 5,3,-1
 48 32 l 5,0,-1
16 0 m 5,4,-1
 16 16 l 5,5,-1
 0 16 l 5,6,-1
 0 32 l 5,7,-1
 16 32 l 5,8,-1
 16 64 l 1,9,-1
 0 64 l 1,10,-1
 0 80 l 1,11,-1
 16 80 l 1,12,-1
 16 96 l 1,13,-1
 32 96 l 1,14,-1
 32 80 l 1,15,-1
 48 80 l 1,16,-1
 48 96 l 1,17,-1
 64 96 l 1,18,-1
 64 80 l 1,19,-1
 80 80 l 1,20,-1
 80 64 l 1,21,-1
 64 64 l 1,22,-1
 64 32 l 5,23,-1
 80 32 l 5,24,-1
 80 16 l 5,25,-1
 64 16 l 5,26,-1
 64 0 l 5,27,-1
 48 0 l 5,28,-1
 48 16 l 5,29,-1
 32 16 l 5,30,-1
 32 0 l 5,31,-1
 16 0 l 5,4,-1
EndSplineSet
Validated: 1
EndChar

StartChar: SF440000
Encoding: 9580 9580 128
Width: 88
Flags: W
LayerCount: 2
Fore
SplineSet
48 -26 m 1,0,-1
 48 32 l 1,1,-1
 98 32 l 1,2,-1
 98 16 l 1,3,-1
 64 16 l 1,4,-1
 64 -26 l 1,5,-1
 48 -26 l 1,0,-1
32 -26 m 1,6,-1
 32 32 l 1,7,-1
 0 32 l 1,8,-1
 0 16 l 1,9,-1
 16 16 l 1,10,-1
 16 -26 l 1,11,-1
 32 -26 l 1,6,-1
48 96 m 1,12,-1
 48 48 l 1,13,-1
 98 48 l 1,14,-1
 98 64 l 1,15,-1
 64 64 l 1,16,-1
 64 96 l 1,17,-1
 48 96 l 1,12,-1
32 96 m 1,18,-1
 32 48 l 1,19,-1
 0 48 l 1,20,-1
 0 64 l 1,21,-1
 16 64 l 1,22,-1
 16 96 l 5,23,-1
 32 96 l 1,18,-1
EndSplineSet
Validated: 9
EndChar

StartChar: equivalence
Encoding: 8801 8801 129
Width: 88
Flags: W
LayerCount: 2
Fore
SplineSet
0 0 m 1,0,-1
 0 16 l 1,1,-1
 80 16 l 1,2,-1
 80 0 l 1,3,-1
 0 0 l 1,0,-1
0 64 m 1,4,-1
 0 80 l 1,5,-1
 80 80 l 1,6,-1
 80 64 l 1,7,-1
 0 64 l 1,4,-1
0 32 m 1,8,-1
 0 48 l 1,9,-1
 80 48 l 1,10,-1
 80 32 l 1,11,-1
 0 32 l 1,8,-1
EndSplineSet
Validated: 1
EndChar

StartChar: SF470000
Encoding: 9572 9572 130
Width: 88
Flags: W
LayerCount: 2
Fore
SplineSet
0 50 m 5,0,-1
 0 66 l 5,1,-1
 98 66 l 5,2,-1
 98 50 l 5,3,-1
 0 50 l 5,0,-1
32 -4 m 5,4,-1
 32 18 l 5,5,-1
 0 18 l 5,6,-1
 0 34 l 5,7,-1
 98 34 l 5,8,-1
 98 18 l 5,9,-1
 48 18 l 5,10,-1
 48 -4 l 5,11,-1
 32 -4 l 5,4,-1
EndSplineSet
Validated: 1
EndChar

StartChar: SF480000
Encoding: 9573 9573 131
Width: 88
Flags: W
LayerCount: 2
Fore
SplineSet
16 -4 m 5,0,-1
 16 32 l 5,1,-1
 0 32 l 5,2,-1
 0 48 l 5,3,-1
 98 48 l 5,4,-1
 98 32 l 5,5,-1
 64 32 l 5,6,-1
 64 -4 l 5,7,-1
 48 -4 l 5,8,-1
 48 32 l 5,9,-1
 32 32 l 5,10,-1
 32 -4 l 5,11,-1
 16 -4 l 5,0,-1
EndSplineSet
Validated: 1
EndChar

StartChar: SF460000
Encoding: 9576 9576 132
Width: 88
Flags: W
LayerCount: 2
Fore
SplineSet
16 96 m 5,0,-1
 16 48 l 1,1,-1
 0 48 l 1,2,-1
 0 32 l 1,3,-1
 98 32 l 1,4,-1
 98 48 l 1,5,-1
 64 48 l 1,6,-1
 64 96 l 5,7,-1
 48 96 l 5,8,-1
 48 48 l 1,9,-1
 32 48 l 1,10,-1
 32 96 l 5,11,-1
 16 96 l 5,0,-1
EndSplineSet
Validated: 9
EndChar

StartChar: filledbox
Encoding: 9632 9632 133
Width: 128
VWidth: 0
Flags: W
LayerCount: 2
Fore
SplineSet
16 0 m 1,0,-1
 16 64 l 5,1,-1
 80 64 l 1,2,-1
 80 0 l 1,3,-1
 16 0 l 1,0,-1
EndSplineSet
Validated: 1
EndChar

StartChar: Phi
Encoding: 934 934 134
Width: 88
Flags: W
LayerCount: 2
Fore
SplineSet
32 48 m 5,0,-1
 32 64 l 5,1,-1
 16 64 l 1,2,-1
 16 80 l 1,3,-1
 64 80 l 1,4,-1
 64 64 l 1,5,-1
 48 64 l 1,6,-1
 48 48 l 5,7,-1
 32 48 l 5,0,-1
48 48 m 1,8,-1
 64 48 l 1,9,-1
 64 32 l 1,10,-1
 48 32 l 1,11,-1
 48 48 l 1,8,-1
32 32 m 1,12,-1
 16 32 l 1,13,-1
 16 48 l 1,14,-1
 32 48 l 1,15,-1
 32 32 l 1,12,-1
32 32 m 1,16,-1
 32 16 l 1,17,-1
 16 16 l 1,18,-1
 16 0 l 1,19,-1
 64 0 l 1,20,-1
 64 16 l 1,21,-1
 48 16 l 1,22,-1
 48 32 l 1,23,-1
 32 32 l 1,16,-1
EndSplineSet
Validated: 5
EndChar

StartChar: ordmasculine
Encoding: 186 186 135
Width: 72
Flags: W
LayerCount: 2
Fore
SplineSet
0 0 m 1,0,-1
 0 16 l 1,1,-1
 64 16 l 1,2,-1
 64 0 l 1,3,-1
 0 0 l 1,0,-1
48 48 m 5,4,-1
 48 64 l 5,5,-1
 16 64 l 5,6,-1
 16 48 l 5,7,-1
 48 48 l 5,4,-1
16 48 m 5,8,-1
 0 48 l 5,9,-1
 0 64 l 5,10,-1
 16 64 l 5,11,-1
 16 80 l 5,12,-1
 48 80 l 5,13,-1
 48 64 l 5,14,-1
 64 64 l 5,15,-1
 64 48 l 5,16,-1
 48 48 l 5,17,-1
 48 32 l 5,18,-1
 16 32 l 5,19,-1
 16 48 l 5,8,-1
EndSplineSet
Validated: 5
EndChar

StartChar: degree
Encoding: 176 176 136
Width: 72
Flags: W
LayerCount: 2
Fore
SplineSet
48 48 m 5,0,-1
 48 64 l 5,1,-1
 16 64 l 5,2,-1
 16 48 l 5,3,-1
 48 48 l 5,0,-1
16 48 m 5,4,-1
 0 48 l 5,5,-1
 0 64 l 5,6,-1
 16 64 l 5,7,-1
 16 80 l 5,8,-1
 48 80 l 5,9,-1
 48 64 l 5,10,-1
 64 64 l 5,11,-1
 64 48 l 5,12,-1
 48 48 l 5,13,-1
 48 32 l 5,14,-1
 16 32 l 5,15,-1
 16 48 l 5,4,-1
EndSplineSet
Validated: 5
EndChar

StartChar: periodcentered
Encoding: 183 183 137
Width: 88
Flags: W
LayerCount: 2
Fore
SplineSet
32 32 m 5,0,-1
 32 48 l 5,1,-1
 48 48 l 5,2,-1
 48 32 l 5,3,-1
 32 32 l 5,0,-1
EndSplineSet
Validated: 1
EndChar

StartChar: invsmileface
Encoding: 9787 9787 138
Width: 88
Flags: W
LayerCount: 2
Fore
SplineSet
64 16 m 1,0,-1
 64 32 l 1,1,-1
 16 32 l 1,2,-1
 16 16 l 1,3,-1
 64 16 l 1,0,-1
64 48 m 1,4,-1
 64 64 l 1,5,-1
 48 64 l 1,6,-1
 48 48 l 1,7,-1
 64 48 l 1,4,-1
32 48 m 1,8,-1
 32 64 l 1,9,-1
 16 64 l 1,10,-1
 16 48 l 1,11,-1
 32 48 l 1,8,-1
64 80 m 1,12,-1
 64 64 l 1,13,-1
 80 64 l 1,14,-1
 80 16 l 1,15,-1
 64 16 l 1,16,-1
 64 0 l 1,17,-1
 16 0 l 1,18,-1
 16 16 l 1,19,-1
 0 16 l 1,20,-1
 0 64 l 1,21,-1
 16 64 l 1,22,-1
 16 80 l 1,23,-1
 64 80 l 1,12,-1
EndSplineSet
Validated: 5
EndChar

StartChar: invbullet
Encoding: 9688 9688 139
Width: 96
Flags: W
LayerCount: 2
Fore
SplineSet
0 -32 m 1,0,-1
 0 96 l 5,1,-1
 96 96 l 1,2,-1
 96 -32 l 1,3,-1
 0 -32 l 1,0,-1
32 32 m 1,4,-1
 32 16 l 1,5,-1
 64 16 l 1,6,-1
 64 32 l 1,7,-1
 80 32 l 1,8,-1
 80 64 l 1,9,-1
 64 64 l 1,10,-1
 64 80 l 1,11,-1
 32 80 l 1,12,-1
 32 64 l 1,13,-1
 16 64 l 1,14,-1
 16 32 l 1,15,-1
 32 32 l 1,4,-1
EndSplineSet
EndChar

StartChar: lfblock
Encoding: 9612 9612 140
Width: 96
Flags: W
LayerCount: 2
Fore
SplineSet
-2 -64 m 1,0,-1
 -2 101 l 1,1,-1
 48 101 l 5,2,-1
 48 -64 l 5,3,-1
 -2 -64 l 1,0,-1
EndSplineSet
Validated: 1
EndChar

StartChar: rtblock
Encoding: 9616 9616 141
Width: 96
Flags: W
LayerCount: 2
Fore
SplineSet
48 -64 m 1,0,-1
 48 96 l 5,1,-1
 156 96 l 1,2,-1
 157 -64 l 1,3,-1
 48 -64 l 1,0,-1
EndSplineSet
Validated: 1
EndChar

StartChar: upblock
Encoding: 9600 9600 142
Width: 152
VWidth: 256
Flags: W
LayerCount: 2
Fore
SplineSet
0 40 m 5,0,-1
 0 96 l 1,1,-1
 157 96 l 1,2,-1
 157 40 l 1,3,-1
 0 40 l 5,0,-1
EndSplineSet
Validated: 1
EndChar

StartChar: SF060000
Encoding: 9516 9516 143
Width: 88
Flags: W
LayerCount: 2
Fore
SplineSet
32 -4 m 1,0,-1
 32 34 l 5,1,-1
 0 34 l 5,2,-1
 0 50 l 5,3,-1
 98 50 l 5,4,-1
 98 34 l 5,5,-1
 48 34 l 5,6,-1
 48 -4 l 1,7,-1
 32 -4 l 1,0,-1
EndSplineSet
Validated: 1
EndChar

StartChar: invcircle
Encoding: 9689 9689 144
Width: 96
Flags: W
LayerCount: 2
Fore
SplineSet
32 64 m 1,0,-1
 64 64 l 1,1,-1
 64 32 l 1,2,-1
 32 32 l 1,3,-1
 32 64 l 1,0,-1
0 -32 m 5,4,-1
 0 96 l 1,5,-1
 96 96 l 1,6,-1
 96 -32 l 1,7,-1
 0 -32 l 5,4,-1
32 32 m 1,8,-1
 32 16 l 1,9,-1
 64 16 l 1,10,-1
 64 32 l 1,11,-1
 80 32 l 1,12,-1
 80 64 l 1,13,-1
 64 64 l 1,14,-1
 64 80 l 1,15,-1
 32 80 l 1,16,-1
 32 64 l 1,17,-1
 16 64 l 1,18,-1
 16 32 l 1,19,-1
 32 32 l 1,8,-1
EndSplineSet
EndChar

StartChar: integraltp
Encoding: 8992 8992 145
Width: 88
Flags: W
LayerCount: 2
Fore
SplineSet
32 0 m 1,0,-1
 16 0 l 1,1,-1
 16 64 l 1,2,-1
 32 64 l 1,3,-1
 32 80 l 1,4,-1
 64 80 l 1,5,-1
 64 64 l 1,6,-1
 32 64 l 1,7,-1
 32 0 l 1,0,-1
EndSplineSet
Validated: 5
EndChar

StartChar: SF450000
Encoding: 9575 9575 146
Width: 88
Flags: W
LayerCount: 2
Fore
SplineSet
0 34 m 5,0,-1
 0 18 l 5,1,-1
 98 18 l 5,2,-1
 98 34 l 5,3,-1
 0 34 l 5,0,-1
32 88 m 5,4,-1
 32 66 l 5,5,-1
 0 66 l 5,6,-1
 0 50 l 5,7,-1
 98 50 l 5,8,-1
 98 66 l 5,9,-1
 48 66 l 5,10,-1
 48 88 l 5,11,-1
 32 88 l 5,4,-1
EndSplineSet
Validated: 9
EndChar

StartChar: SF370000
Encoding: 9567 9567 147
Width: 88
Flags: W
LayerCount: 2
Fore
SplineSet
32 0 m 1,0,-1
 16 0 l 1,1,-1
 16 96 l 5,2,-1
 32 96 l 5,3,-1
 32 0 l 1,0,-1
86 32 m 1,4,-1
 64 32 l 1,5,-1
 64 0 l 1,6,-1
 48 0 l 1,7,-1
 48 96 l 5,8,-1
 64 96 l 5,9,-1
 64 48 l 1,10,-1
 86 48 l 1,11,-1
 86 32 l 1,4,-1
EndSplineSet
Validated: 1
EndChar

StartChar: SF200000
Encoding: 9570 9570 148
Width: 88
Flags: W
LayerCount: 2
Fore
SplineSet
48 0 m 1,0,-1
 64 0 l 1,1,-1
 64 96 l 5,2,-1
 48 96 l 5,3,-1
 48 0 l 1,0,-1
-6 32 m 1,4,-1
 16 32 l 1,5,-1
 16 0 l 1,6,-1
 32 0 l 1,7,-1
 32 96 l 5,8,-1
 16 96 l 5,9,-1
 16 48 l 1,10,-1
 -6 48 l 1,11,-1
 -6 32 l 1,4,-1
EndSplineSet
Validated: 9
EndChar

StartChar: ampersand
Encoding: 38 38 149
Width: 72
Flags: W
LayerCount: 2
Fore
SplineSet
32 16 m 1,0,-1
 32 32 l 1,1,-1
 16 32 l 1,2,-1
 16 16 l 1,3,-1
 32 16 l 1,0,-1
16 48 m 1,4,-1
 0 48 l 1,5,-1
 0 64 l 1,6,-1
 16 64 l 1,7,-1
 16 80 l 1,8,-1
 48 80 l 1,9,-1
 48 64 l 1,10,-1
 16 64 l 1,11,-1
 16 48 l 1,12,-1
 64 48 l 1,13,-1
 64 32 l 1,14,-1
 48 32 l 1,15,-1
 48 16 l 1,16,-1
 64 16 l 1,17,-1
 64 0 l 1,18,-1
 48 0 l 1,19,-1
 48 16 l 1,20,-1
 32 16 l 1,21,-1
 32 0 l 1,22,-1
 16 0 l 1,23,-1
 16 16 l 1,24,-1
 0 16 l 1,25,-1
 0 32 l 1,26,-1
 16 32 l 1,27,-1
 16 48 l 1,4,-1
EndSplineSet
Validated: 5
EndChar

StartChar: arrowleft
Encoding: 8592 8592 150
Width: 88
Flags: W
LayerCount: 2
Fore
SplineSet
80 48 m 5,0,-1
 48 48 l 5,1,-1
 48 80 l 5,2,-1
 32 80 l 5,3,-1
 32 64 l 5,4,-1
 16 64 l 5,5,-1
 16 48 l 5,6,-1
 0 48 l 5,7,-1
 0 32 l 5,8,-1
 16 32 l 5,9,-1
 16 16 l 5,10,-1
 32 16 l 5,11,-1
 32 0 l 5,12,-1
 48 0 l 5,13,-1
 48 32 l 5,14,-1
 80 32 l 5,15,-1
 80 48 l 5,0,-1
EndSplineSet
Validated: 9
EndChar

StartChar: arrowright
Encoding: 8594 8594 151
Width: 88
Flags: W
LayerCount: 2
Fore
SplineSet
0 32 m 5,0,-1
 32 32 l 5,1,-1
 32 0 l 5,2,-1
 48 0 l 5,3,-1
 48 16 l 5,4,-1
 64 16 l 5,5,-1
 64 32 l 5,6,-1
 80 32 l 5,7,-1
 80 48 l 5,8,-1
 64 48 l 5,9,-1
 64 64 l 5,10,-1
 48 64 l 5,11,-1
 48 80 l 5,12,-1
 32 80 l 5,13,-1
 32 48 l 5,14,-1
 0 48 l 5,15,-1
 0 32 l 5,0,-1
EndSplineSet
Validated: 9
EndChar

StartChar: uni2196
Encoding: 8598 8598 152
Width: 88
Flags: W
LayerCount: 2
Fore
SplineSet
64 16 m 1,0,-1
 64 32 l 1,1,-1
 48 32 l 1,2,-1
 48 48 l 1,3,-1
 32 48 l 1,4,-1
 32 64 l 1,5,-1
 48 64 l 1,6,-1
 48 80 l 1,7,-1
 0 80 l 1,8,-1
 0 32 l 1,9,-1
 16 32 l 1,10,-1
 16 48 l 1,11,-1
 32 48 l 1,12,-1
 32 32 l 1,13,-1
 48 32 l 1,14,-1
 48 16 l 1,15,-1
 64 16 l 1,0,-1
EndSplineSet
Validated: 5
EndChar

StartChar: uni2197
Encoding: 8599 8599 153
Width: 88
Flags: W
LayerCount: 2
Fore
SplineSet
0 16 m 5,0,-1
 16 16 l 5,1,-1
 16 32 l 5,2,-1
 32 32 l 5,3,-1
 32 48 l 5,4,-1
 48 48 l 5,5,-1
 48 32 l 5,6,-1
 64 32 l 5,7,-1
 64 80 l 5,8,-1
 16 80 l 5,9,-1
 16 64 l 5,10,-1
 32 64 l 5,11,-1
 32 48 l 5,12,-1
 16 48 l 5,13,-1
 16 32 l 5,14,-1
 0 32 l 5,15,-1
 0 16 l 5,0,-1
EndSplineSet
Validated: 5
EndChar

StartChar: uni2198
Encoding: 8600 8600 154
Width: 88
Flags: W
LayerCount: 2
Fore
SplineSet
0 64 m 5,0,-1
 0 48 l 5,1,-1
 16 48 l 5,2,-1
 16 32 l 5,3,-1
 32 32 l 5,4,-1
 32 16 l 5,5,-1
 16 16 l 5,6,-1
 16 0 l 5,7,-1
 64 0 l 5,8,-1
 64 48 l 5,9,-1
 48 48 l 5,10,-1
 48 32 l 5,11,-1
 32 32 l 5,12,-1
 32 48 l 5,13,-1
 16 48 l 5,14,-1
 16 64 l 5,15,-1
 0 64 l 5,0,-1
EndSplineSet
Validated: 5
EndChar

StartChar: uni2199
Encoding: 8601 8601 155
Width: 88
Flags: W
LayerCount: 2
Fore
SplineSet
64 64 m 1,0,-1
 48 64 l 1,1,-1
 48 48 l 1,2,-1
 32 48 l 1,3,-1
 32 32 l 1,4,-1
 16 32 l 1,5,-1
 16 48 l 1,6,-1
 0 48 l 1,7,-1
 0 0 l 1,8,-1
 48 0 l 5,9,-1
 48 16 l 1,10,-1
 32 16 l 1,11,-1
 32 32 l 1,12,-1
 48 32 l 1,13,-1
 48 48 l 1,14,-1
 64 48 l 1,15,-1
 64 64 l 1,0,-1
EndSplineSet
Validated: 5
EndChar

StartChar: ltshade
Encoding: 9617 9617 156
Width: 96
VWidth: 1024
Flags: WO
LayerCount: 2
Fore
SplineSet
80 -32 m 1,0,-1
 64 -32 l 1025,1,-1
16 -32 m 1,2,-1
 0 -32 l 1025,3,-1
64 -16 m 1,4,-1
 80 -16 l 1,5,-1
 80 -32 l 1,6,-1
 64 -32 l 1,7,-1
 64 -16 l 1,4,-1
32 0 m 1,8,-1
 48 0 l 1,9,-1
 48 -16 l 1,10,-1
 32 -16 l 1,11,-1
 32 0 l 1,8,-1
0 -16 m 1,12,-1
 16 -16 l 1,13,-1
 16 -32 l 1,14,-1
 0 -32 l 1,15,-1
 0 -16 l 1,12,-1
64 16 m 1,16,-1
 80 16 l 1,17,-1
 80 0 l 1,18,-1
 64 0 l 1,19,-1
 64 16 l 1,16,-1
64 48 m 1,20,-1
 80 48 l 1,21,-1
 80 32 l 1,22,-1
 64 32 l 1,23,-1
 64 48 l 1,20,-1
64 80 m 1,24,-1
 80 80 l 1,25,-1
 80 64 l 1,26,-1
 64 64 l 1,27,-1
 64 80 l 1,24,-1
32 32 m 1,28,-1
 48 32 l 1,29,-1
 48 16 l 1,30,-1
 32 16 l 1,31,-1
 32 32 l 1,28,-1
32 64 m 1,32,-1
 48 64 l 1,33,-1
 48 48 l 1,34,-1
 32 48 l 1,35,-1
 32 64 l 1,32,-1
32 96 m 1,36,-1
 48 96 l 1,37,-1
 48 80 l 1,38,-1
 32 80 l 1,39,-1
 32 96 l 1,36,-1
0 16 m 1,40,-1
 16 16 l 1,41,-1
 16 0 l 1,42,-1
 0 0 l 1,43,-1
 0 16 l 1,40,-1
0 48 m 1,44,-1
 16 48 l 1,45,-1
 16 32 l 1,46,-1
 0 32 l 1,47,-1
 0 48 l 1,44,-1
0 80 m 1,48,-1
 16 80 l 1,49,-1
 16 64 l 1,50,-1
 0 64 l 1,51,-1
 0 80 l 1,48,-1
EndSplineSet
EndChar

StartChar: dkshade
Encoding: 9619 9619 157
Width: 96
VWidth: 0
Flags: W
LayerCount: 2
Fore
SplineSet
48 -32 m 1,0,-1
 48 -16 l 1,1,-1
 32 -16 l 1,2,-1
 32 -32 l 1,3,-1
 48 -32 l 1,0,-1
64 -16 m 1,4,-1
 80 -16 l 1025,5,6
16 80 m 1,7,-1
 16 96 l 1,8,-1
 0 96 l 1,9,-1
 0 80 l 1,10,-1
 16 80 l 1,7,-1
16 48 m 1,11,-1
 16 64 l 1,12,-1
 0 64 l 1,13,-1
 0 48 l 1,14,-1
 16 48 l 1,11,-1
16 16 m 1,15,-1
 16 32 l 1,16,-1
 0 32 l 1,17,-1
 0 16 l 1,18,-1
 16 16 l 1,15,-1
16 -16 m 1,19,-1
 16 0 l 1,20,-1
 0 0 l 1,21,-1
 0 -16 l 1,22,-1
 16 -16 l 1,19,-1
48 64 m 1,23,-1
 48 80 l 1,24,-1
 32 80 l 1,25,-1
 32 64 l 1,26,-1
 48 64 l 1,23,-1
48 32 m 1,27,-1
 48 48 l 1,28,-1
 32 48 l 1,29,-1
 32 32 l 1,30,-1
 48 32 l 1,27,-1
48 0 m 1,31,-1
 48 16 l 1,32,-1
 32 16 l 1,33,-1
 32 0 l 1,34,-1
 48 0 l 1,31,-1
80 80 m 1,35,-1
 80 96 l 1,36,-1
 64 96 l 1,37,-1
 64 80 l 1,38,-1
 80 80 l 1,35,-1
80 48 m 1,39,-1
 80 64 l 1,40,-1
 64 64 l 1,41,-1
 64 48 l 1,42,-1
 80 48 l 1,39,-1
80 16 m 1,43,-1
 80 32 l 1,44,-1
 64 32 l 1,45,-1
 64 16 l 1,46,-1
 80 16 l 1,43,-1
80 -16 m 1,47,-1
 80 0 l 1,48,-1
 64 0 l 1,49,-1
 64 -16 l 1,50,-1
 80 -16 l 1,47,-1
96 -32 m 1,51,-1
 0 -32 l 1,52,-1
 0 96 l 1,53,-1
 96 96 l 1,54,-1
 96 -32 l 1,51,-1
80 83 m 1025,55,-1
EndSplineSet
EndChar
